<svg xmlns="http://www.w3.org/2000/svg" viewBox="0 0 1200 600" role="img" aria-label="frfro">
<rect width="1200" height="600" fill="#241a2a"/>
<g fill="none" stroke-width="9" stroke-linecap="round">
<path d="M-50.8 -86.6 L-37.5 -86.9 L-25.1 -82.8 L-15.1 -74.9 L-8.5 -64.2 L-6.0 -52.3 L-7.6 -40.4 L-13.1 -30.1 L-21.5 -22.4 L-31.8 -18.2 L-42.7 -17.7 L-52.8 -20.9 L-61.0 -27.2 L-66.4 -35.6 L-68.5 -45.1 L-67.3 -54.6 L-63.1 -62.8 L-56.6 -68.8 L-48.6 -72.2 L-40.3 -72.7 L-32.5 -70.3 L-26.2 -65.6 L-22.1 -59.2 L-20.5 -52.1 L-21.3 -45.2 L-24.4 -39.2 L-29.2 -34.8 L-34.9 -32.4 L-40.8 -32.1 L-46.2 -33.8 L-50.4 -37.1 L-53.1 -41.5 L-54.1 -46.2 L-53.4 -50.7 L-51.3 -54.4 L-48.2 -57.0 L-44.7 -58.3 L-41.2 -58.2 L-38.3 -57.0 L-36.1 -55.0 L-35.0 -52.6" stroke="#3a2740"/>
<path d="M24.1 -77.6 L34.1 -83.7 L45.3 -86.5 L56.5 -85.9 L66.8 -82.1 L75.4 -75.5 L81.5 -66.9 L84.7 -57.2 L84.9 -47.1 L82.1 -37.7 L76.8 -29.7 L69.6 -23.8 L61.2 -20.4 L52.4 -19.7 L44.0 -21.5 L36.7 -25.7 L31.2 -31.6 L27.8 -38.7 L26.7 -46.2 L27.8 -53.5 L30.9 -60.0 L35.7 -65.0 L41.5 -68.2 L47.8 -69.5 L54.0 -68.9 L59.4 -66.6 L63.8 -62.9 L66.7 -58.3 L68.0 -53.2 L67.8 -48.3 L66.1 -43.8 L63.3 -40.3 L59.8 -37.9 L55.9 -36.7 L52.1 -36.8 L48.8 -38.0 L46.1 -40.0 L44.4 -42.5 L43.6 -45.3 L43.7 -47.9 L44.6 -50.1" stroke="#5c3d5f"/>
<path d="M135.5 -4.9 L125.2 -8.5 L116.2 -14.4 L109.2 -22.3 L104.5 -31.4 L102.3 -41.2 L102.6 -51.0 L105.3 -60.3 L110.1 -68.3 L116.6 -74.7 L124.3 -79.2 L132.7 -81.5 L141.2 -81.7 L149.2 -79.8 L156.3 -76.0 L162.0 -70.7 L166.1 -64.3 L168.4 -57.3 L168.8 -50.2 L167.5 -43.4 L164.6 -37.4 L160.4 -32.5 L155.3 -28.9 L149.6 -26.9 L143.9 -26.3 L138.4 -27.2 L133.5 -29.4 L129.5 -32.7 L126.6 -36.6 L125.0 -41.0 L124.5 -45.4 L125.1 -49.6 L126.7 -53.2 L129.1 -56.2 L132.0 -58.3 L135.2 -59.4 L138.3 -59.7 L141.1 -59.1 L143.6 -57.9 L145.4 -56.2 L146.5 -54.3" stroke="#3a2740"/>
<path d="M200.2 -63.4 L206.9 -74.3 L216.7 -82.1 L228.4 -86.1 L240.4 -85.8 L251.4 -81.6 L260.1 -74.0 L265.6 -64.2 L267.4 -53.4 L265.4 -42.8 L260.1 -33.8 L252.2 -27.4 L242.9 -24.0 L233.2 -24.1 L224.4 -27.3 L217.4 -33.2 L213.0 -40.9 L211.5 -49.4 L213.0 -57.6 L217.0 -64.6 L223.0 -69.6 L230.1 -72.2 L237.3 -72.2 L243.9 -69.8 L249.1 -65.4 L252.3 -59.8 L253.4 -53.7 L252.3 -47.8 L249.4 -42.9 L245.2 -39.5 L240.3 -37.8 L235.4 -37.8 L231.1 -39.5 L227.8 -42.5 L225.9 -46.1 L225.4 -49.9 L226.3 -53.5 L228.1 -56.2 L230.7 -58.0 L233.4 -58.7 L236.0 -58.3" stroke="#46304c"/>
<path d="M340.2 -88.4 L351.9 -79.3 L359.6 -67.1 L362.6 -53.3 L360.8 -39.5 L354.5 -27.5 L344.8 -18.5 L332.9 -13.5 L320.2 -12.9 L308.5 -16.5 L298.8 -23.7 L292.4 -33.5 L289.8 -44.7 L291.1 -55.7 L295.9 -65.3 L303.6 -72.6 L312.9 -76.6 L322.8 -77.3 L332.0 -74.5 L339.5 -69.0 L344.4 -61.6 L346.5 -53.1 L345.6 -44.8 L342.0 -37.6 L336.4 -32.2 L329.5 -29.3 L322.4 -28.8 L315.8 -30.8 L310.5 -34.7 L307.1 -40.0 L305.8 -45.8 L306.6 -51.4 L309.1 -56.1 L312.8 -59.5 L317.2 -61.2 L321.7 -61.3 L325.6 -59.9 L328.5 -57.4 L330.2 -54.3 L330.6 -51.0 L329.9 -48.1" stroke="#2f2236"/>
<path d="M398.5 0.5 L384.6 -8.9 L374.9 -22.1 L370.4 -37.6 L371.5 -53.2 L377.6 -67.3 L387.9 -78.2 L401.0 -84.8 L415.3 -86.5 L428.9 -83.3 L440.3 -75.9 L448.3 -65.3 L452.2 -52.9 L451.6 -40.3 L446.8 -29.0 L438.8 -20.3 L428.5 -14.9 L417.4 -13.5 L406.7 -15.8 L397.8 -21.5 L391.6 -29.6 L388.7 -38.9 L389.1 -48.4 L392.6 -56.9 L398.5 -63.4 L406.0 -67.3 L414.1 -68.3 L421.7 -66.6 L427.9 -62.6 L432.2 -56.9 L434.1 -50.4 L433.7 -44.0 L431.3 -38.5 L427.3 -34.4 L422.4 -32.1 L417.4 -31.7 L412.9 -32.9 L409.4 -35.5 L407.2 -38.9 L406.5 -42.6 L407.0 -45.9" stroke="#46304c"/>
<path d="M505.3 -95.8 L521.7 -94.2 L536.3 -87.3 L547.4 -76.1 L553.9 -62.0 L555.2 -46.9 L551.4 -32.6 L543.1 -20.8 L531.6 -12.6 L518.3 -9.0 L504.9 -10.0 L493.0 -15.4 L483.9 -24.4 L478.5 -35.5 L477.3 -47.6 L480.2 -58.9 L486.5 -68.4 L495.5 -74.9 L505.8 -77.8 L516.1 -77.1 L525.3 -73.0 L532.3 -66.3 L536.4 -57.9 L537.3 -48.9 L535.2 -40.5 L530.6 -33.6 L524.1 -28.9 L516.7 -26.8 L509.4 -27.4 L503.0 -30.3 L498.3 -35.0 L495.7 -40.7 L495.2 -46.7 L496.7 -52.1 L499.8 -56.4 L504.0 -59.1 L508.5 -60.1 L512.8 -59.5 L516.2 -57.6 L518.6 -54.8 L519.6 -51.7" stroke="#46304c"/>
<path d="M634.8 -44.4 L632.0 -35.3 L627.2 -27.4 L620.6 -21.1 L612.9 -16.7 L604.5 -14.5 L596.0 -14.4 L587.9 -16.4 L580.8 -20.3 L575.0 -25.7 L570.8 -32.3 L568.5 -39.5 L568.1 -46.8 L569.5 -53.8 L572.6 -60.1 L577.0 -65.2 L582.4 -68.9 L588.3 -71.2 L594.5 -71.8 L600.4 -70.8 L605.7 -68.5 L610.1 -65.0 L613.3 -60.7 L615.3 -55.9 L616.0 -50.9 L615.4 -46.2 L613.6 -41.9 L611.0 -38.3 L607.7 -35.7 L603.9 -34.1 L600.1 -33.5 L596.5 -33.9 L593.3 -35.2 L590.6 -37.2 L588.7 -39.6 L587.6 -42.3 L587.3 -45.0 L587.7 -47.5 L588.6 -49.6 L590.0 -51.3 L591.7 -52.3" stroke="#6a4468"/>
<path d="M672.7 -83.0 L682.1 -86.1 L691.7 -86.8 L701.0 -85.2 L709.4 -81.3 L716.3 -75.6 L721.6 -68.5 L724.8 -60.4 L725.8 -52.1 L724.8 -43.9 L721.8 -36.5 L717.1 -30.2 L711.2 -25.4 L704.4 -22.3 L697.3 -21.1 L690.3 -21.7 L683.9 -23.9 L678.4 -27.6 L674.2 -32.4 L671.4 -38.0 L670.1 -43.8 L670.4 -49.6 L672.0 -55.0 L674.9 -59.6 L678.7 -63.1 L683.1 -65.5 L687.7 -66.7 L692.3 -66.6 L696.6 -65.4 L700.2 -63.2 L703.0 -60.4 L704.8 -57.0 L705.7 -53.6 L705.6 -50.1 L704.7 -47.1 L703.1 -44.5 L701.1 -42.6 L698.8 -41.4 L696.4 -40.9 L694.1 -41.1 L692.2 -41.8" stroke="#2f2236"/>
<path d="M771.9 -82.4 L782.0 -84.0 L792.0 -83.0 L801.2 -79.6 L809.1 -74.2 L815.2 -67.1 L819.3 -58.8 L821.1 -50.0 L820.7 -41.3 L818.2 -33.1 L813.8 -26.0 L807.9 -20.4 L801.0 -16.6 L793.5 -14.6 L786.0 -14.6 L779.0 -16.5 L772.8 -19.9 L767.8 -24.7 L764.3 -30.4 L762.5 -36.5 L762.2 -42.8 L763.5 -48.7 L766.2 -53.9 L769.9 -58.1 L774.4 -61.0 L779.3 -62.7 L784.3 -63.0 L789.0 -62.1 L793.1 -60.1 L796.4 -57.3 L798.8 -53.9 L800.1 -50.1 L800.4 -46.4 L799.7 -42.9 L798.2 -39.9 L796.2 -37.6 L793.7 -36.0 L791.1 -35.2 L788.6 -35.1 L786.3 -35.7 L784.5 -36.8" stroke="#3a2740"/>
<path d="M845.1 -17.5 L837.5 -27.7 L833.4 -39.5 L832.9 -51.8 L836.0 -63.3 L842.3 -73.2 L851.0 -80.7 L861.3 -85.1 L872.1 -86.3 L882.6 -84.2 L891.8 -79.3 L898.9 -72.0 L903.4 -63.3 L905.0 -53.8 L903.9 -44.5 L900.1 -36.3 L894.2 -29.7 L886.9 -25.3 L878.8 -23.3 L870.8 -23.8 L863.5 -26.6 L857.6 -31.3 L853.5 -37.2 L851.5 -43.9 L851.5 -50.7 L853.5 -56.8 L857.1 -61.9 L861.8 -65.5 L867.2 -67.4 L872.6 -67.6 L877.6 -66.3 L881.7 -63.6 L884.6 -60.0 L886.2 -56.0 L886.5 -51.8 L885.6 -48.1 L883.7 -45.0 L881.1 -42.9 L878.2 -41.8 L875.3 -41.6 L872.8 -42.3" stroke="#52385a"/>
<path d="M979.8 -5.6 L967.9 -5.8 L956.7 -9.5 L947.3 -16.1 L940.5 -25.0 L936.6 -35.3 L936.0 -46.1 L938.6 -56.2 L943.9 -65.0 L951.4 -71.6 L960.3 -75.7 L969.7 -76.8 L978.9 -75.2 L986.9 -71.1 L993.1 -64.9 L997.1 -57.4 L998.7 -49.2 L997.8 -41.3 L994.7 -34.1 L989.7 -28.4 L983.5 -24.6 L976.7 -22.8 L969.9 -23.2 L963.7 -25.5 L958.7 -29.3 L955.3 -34.3 L953.5 -39.9 L953.5 -45.5 L955.1 -50.6 L958.1 -54.7 L961.9 -57.7 L966.2 -59.2 L970.6 -59.4 L974.6 -58.3 L977.8 -56.1 L980.1 -53.3 L981.2 -50.1 L981.4 -47.0 L980.6 -44.2 L979.0 -42.0 L977.1 -40.5" stroke="#46304c"/>
<path d="M1027.6 -83.6 L1041.6 -88.9 L1056.1 -89.1 L1069.6 -84.4 L1080.5 -75.6 L1087.5 -64.0 L1090.2 -50.9 L1088.2 -38.0 L1082.1 -26.8 L1072.8 -18.5 L1061.6 -14.0 L1049.7 -13.7 L1038.8 -17.3 L1030.0 -24.2 L1024.2 -33.4 L1022.0 -43.8 L1023.4 -53.9 L1028.1 -62.8 L1035.2 -69.3 L1043.9 -72.8 L1052.9 -73.2 L1061.3 -70.5 L1067.9 -65.3 L1072.3 -58.5 L1073.9 -50.8 L1072.9 -43.3 L1069.5 -37.0 L1064.4 -32.3 L1058.2 -29.9 L1051.9 -29.7 L1046.3 -31.6 L1041.8 -35.2 L1039.1 -39.8 L1038.1 -44.8 L1039.0 -49.5 L1041.2 -53.4 L1044.5 -56.0 L1048.2 -57.2 L1051.8 -57.1 L1054.8 -55.7 L1056.9 -53.6" stroke="#46304c"/>
<path d="M1175.4 -19.8 L1166.2 -15.3 L1156.5 -13.3 L1146.7 -13.7 L1137.6 -16.5 L1129.7 -21.4 L1123.3 -28.0 L1119.0 -35.8 L1116.8 -44.2 L1116.7 -52.7 L1118.8 -60.8 L1122.7 -67.9 L1128.1 -73.6 L1134.6 -77.6 L1141.7 -79.9 L1149.0 -80.2 L1155.8 -78.8 L1162.0 -75.8 L1167.0 -71.4 L1170.6 -66.1 L1172.7 -60.3 L1173.2 -54.3 L1172.3 -48.6 L1170.0 -43.5 L1166.6 -39.3 L1162.4 -36.3 L1157.8 -34.5 L1153.0 -33.9 L1148.5 -34.6 L1144.6 -36.3 L1141.3 -38.9 L1139.0 -42.0 L1137.6 -45.5 L1137.2 -49.0 L1137.7 -52.2 L1138.9 -55.1 L1140.8 -57.3 L1143.0 -58.9 L1145.4 -59.7 L1147.7 -59.8 L1149.8 -59.3" stroke="#5c3d5f"/>
<path d="M1272.2 -30.8 L1265.3 -23.1 L1256.8 -17.6 L1247.5 -14.4 L1237.8 -13.7 L1228.5 -15.4 L1220.1 -19.3 L1213.1 -25.0 L1207.9 -32.2 L1204.8 -40.2 L1203.7 -48.5 L1204.8 -56.6 L1207.8 -64.0 L1212.4 -70.3 L1218.3 -75.0 L1225.0 -78.0 L1232.0 -79.2 L1238.9 -78.6 L1245.3 -76.3 L1250.6 -72.7 L1254.8 -68.0 L1257.5 -62.5 L1258.7 -56.8 L1258.4 -51.1 L1256.7 -45.9 L1253.9 -41.5 L1250.2 -38.1 L1246.0 -35.8 L1241.5 -34.8 L1237.1 -34.9 L1233.1 -36.2 L1229.7 -38.3 L1227.1 -41.0 L1225.4 -44.2 L1224.7 -47.4 L1224.9 -50.6 L1225.8 -53.4 L1227.3 -55.7 L1229.2 -57.3 L1231.4 -58.3 L1233.5 -58.6" stroke="#5c3d5f"/>
<path d="M-33.5 56.8 L-41.0 41.8 L-42.9 25.5 L-39.3 9.9 L-30.7 -3.3 L-18.4 -12.6 L-4.0 -17.0 L10.7 -16.3 L23.9 -10.8 L34.2 -1.4 L40.5 10.8 L42.3 23.9 L39.6 36.6 L32.8 47.3 L23.2 54.8 L11.8 58.5 L0.2 58.1 L-10.2 53.9 L-18.3 46.6 L-23.3 37.3 L-24.7 27.2 L-22.7 17.6 L-17.7 9.5 L-10.5 3.9 L-2.1 1.1 L6.4 1.4 L13.9 4.5 L19.7 9.7 L23.2 16.3 L24.1 23.3 L22.6 29.9 L19.1 35.3 L14.2 38.9 L8.7 40.6 L3.4 40.2 L-1.2 38.1 L-4.5 34.7 L-6.3 30.7 L-6.5 26.7 L-5.4 23.2 L-3.3 20.6" stroke="#52385a"/>
<path d="M69.0 -2.8 L81.7 -8.8 L95.4 -10.1 L108.4 -6.7 L119.3 0.7 L126.8 11.2 L130.2 23.3 L129.4 35.5 L124.5 46.5 L116.4 54.9 L106.1 60.0 L95.1 61.2 L84.5 58.7 L75.7 52.9 L69.6 44.6 L66.7 35.1 L67.3 25.4 L71.0 16.8 L77.2 10.1 L85.1 6.1 L93.6 5.1 L101.6 7.0 L108.3 11.3 L112.9 17.5 L115.0 24.5 L114.6 31.6 L111.9 37.9 L107.4 42.6 L101.8 45.4 L95.9 46.0 L90.4 44.6 L86.0 41.6 L83.0 37.5 L81.8 32.9 L82.2 28.4 L84.1 24.6 L86.9 21.8 L90.3 20.4 L93.7 20.3 L96.6 21.4 L98.7 23.2" stroke="#3a2740"/>
<path d="M183.3 -11.9 L196.3 -10.4 L208.0 -5.3 L217.4 2.9 L223.9 13.3 L226.9 24.8 L226.4 36.5 L222.5 47.3 L215.8 56.2 L207.0 62.6 L197.0 65.9 L186.6 66.2 L176.9 63.5 L168.7 58.1 L162.6 50.8 L159.1 42.2 L158.2 33.2 L160.1 24.7 L164.2 17.3 L170.2 11.7 L177.3 8.2 L184.9 7.0 L192.2 8.2 L198.6 11.3 L203.6 16.0 L206.8 21.8 L208.1 28.0 L207.5 34.0 L205.2 39.3 L201.6 43.5 L197.1 46.3 L192.3 47.5 L187.6 47.2 L183.4 45.6 L180.1 42.9 L178.0 39.6 L177.0 36.0 L177.2 32.6 L178.4 29.7 L180.3 27.5 L182.6 26.1" stroke="#5c3d5f"/>
<path d="M291.9 -9.4 L300.4 -2.5 L306.8 6.2 L310.7 16.0 L312.0 26.2 L310.7 36.2 L307.0 45.3 L301.3 53.0 L294.1 59.0 L285.7 62.8 L276.9 64.4 L268.2 63.7 L260.2 60.9 L253.3 56.3 L248.0 50.4 L244.4 43.4 L242.7 36.0 L243.0 28.6 L245.0 21.8 L248.6 15.9 L253.4 11.2 L259.0 8.0 L265.1 6.5 L271.1 6.4 L276.7 7.9 L281.5 10.6 L285.4 14.4 L288.0 18.8 L289.4 23.5 L289.5 28.2 L288.4 32.5 L286.4 36.2 L283.6 39.1 L280.3 41.0 L276.9 42.0 L273.5 42.0 L270.5 41.2 L268.0 39.7 L266.1 37.7 L265.0 35.5 L264.6 33.3" stroke="#5c3d5f"/>
<path d="M377.9 81.6 L360.9 79.8 L345.9 72.5 L334.5 60.8 L327.9 46.2 L326.7 30.6 L330.8 15.9 L339.4 3.7 L351.4 -4.6 L365.1 -8.3 L379.0 -7.1 L391.3 -1.4 L400.6 7.9 L406.1 19.5 L407.2 31.9 L404.2 43.7 L397.5 53.4 L388.2 60.0 L377.5 63.0 L366.8 62.1 L357.4 57.9 L350.2 50.8 L346.1 42.1 L345.2 32.8 L347.4 24.1 L352.3 17.0 L359.0 12.3 L366.7 10.2 L374.2 10.8 L380.8 13.9 L385.6 18.8 L388.3 24.7 L388.7 30.9 L387.1 36.5 L383.8 40.9 L379.5 43.7 L374.8 44.7 L370.5 44.0 L366.9 42.0 L364.5 39.1 L363.4 35.8" stroke="#3a2740"/>
<path d="M480.1 -11.9 L490.9 -1.8 L498.0 10.8 L501.0 24.6 L499.9 38.4 L494.8 51.0 L486.4 61.2 L475.7 68.4 L463.5 72.0 L451.2 71.8 L439.8 68.1 L430.2 61.3 L423.2 52.2 L419.4 41.8 L418.8 31.0 L421.4 20.8 L426.7 12.1 L434.2 5.6 L442.9 1.7 L452.2 0.6 L461.0 2.3 L468.7 6.4 L474.6 12.3 L478.3 19.5 L479.6 27.2 L478.7 34.6 L475.6 41.1 L471.0 46.2 L465.3 49.5 L459.2 50.8 L453.2 50.3 L448.0 48.1 L443.9 44.7 L441.2 40.4 L440.1 35.7 L440.4 31.3 L441.9 27.4 L444.4 24.4 L447.5 22.5 L450.7 21.8 L453.7 22.1" stroke="#5c3d5f"/>
<path d="M502.3 26.7 L503.8 15.8 L508.0 5.8 L514.3 -2.7 L522.4 -9.2 L531.7 -13.3 L541.5 -14.9 L551.2 -14.1 L560.1 -10.9 L567.7 -5.8 L573.7 1.0 L577.6 8.8 L579.5 17.2 L579.1 25.5 L576.8 33.3 L572.7 40.0 L567.2 45.3 L560.7 48.9 L553.7 50.8 L546.8 50.8 L540.2 49.1 L534.6 45.9 L530.0 41.5 L526.9 36.4 L525.2 30.8 L525.0 25.2 L526.2 19.9 L528.6 15.3 L532.0 11.7 L535.9 9.2 L540.2 7.8 L544.5 7.6 L548.4 8.5 L551.8 10.3 L554.5 12.7 L556.2 15.6 L557.1 18.6 L557.1 21.6 L556.4 24.2 L555.1 26.4 L553.4 27.9" stroke="#3a2740"/>
<path d="M685.1 51.4 L672.9 63.1 L657.7 69.8 L641.5 70.9 L626.2 66.5 L613.6 57.4 L605.0 44.8 L601.4 30.4 L602.8 16.0 L608.8 3.2 L618.7 -6.5 L630.9 -12.1 L643.9 -13.2 L656.2 -9.9 L666.4 -2.8 L673.3 7.1 L676.4 18.4 L675.4 29.7 L670.8 39.7 L663.3 47.3 L654.0 51.7 L644.0 52.6 L634.7 50.1 L627.1 44.8 L622.0 37.6 L619.8 29.3 L620.5 21.1 L623.8 14.0 L629.2 8.7 L635.7 5.7 L642.5 5.2 L648.7 6.9 L653.7 10.6 L656.9 15.4 L658.1 20.7 L657.4 25.8 L655.2 30.0 L651.9 32.9 L648.0 34.3 L644.3 34.2 L641.2 32.9" stroke="#5c3d5f"/>
<path d="M753.8 -1.3 L760.8 6.0 L765.7 14.7 L768.1 24.1 L768.2 33.6 L765.8 42.6 L761.5 50.6 L755.4 57.1 L748.0 61.7 L739.9 64.2 L731.7 64.6 L723.8 63.0 L716.7 59.6 L710.9 54.6 L706.7 48.5 L704.2 41.7 L703.5 34.7 L704.6 28.0 L707.3 22.0 L711.2 17.0 L716.1 13.2 L721.7 11.0 L727.4 10.2 L732.9 10.9 L737.9 12.8 L742.0 15.9 L745.1 19.8 L747.0 24.1 L747.7 28.6 L747.3 32.9 L745.8 36.7 L743.5 39.9 L740.7 42.2 L737.4 43.7 L734.2 44.1 L731.1 43.8 L728.4 42.7 L726.3 41.0 L724.8 39.0 L724.0 36.8 L723.9 34.7" stroke="#46304c"/>
<path d="M783.6 27.8 L786.1 14.1 L792.4 2.0 L801.7 -7.5 L813.2 -13.7 L825.8 -16.1 L838.2 -14.8 L849.4 -10.0 L858.4 -2.2 L864.6 7.6 L867.5 18.6 L867.1 29.6 L863.5 39.8 L857.2 48.2 L849.0 54.1 L839.6 57.3 L830.0 57.6 L821.0 55.1 L813.5 50.1 L807.9 43.4 L804.6 35.5 L803.9 27.4 L805.6 19.7 L809.4 13.1 L814.8 8.1 L821.1 5.0 L827.8 4.1 L834.2 5.1 L839.7 7.9 L843.9 12.1 L846.6 17.0 L847.6 22.3 L846.9 27.3 L844.9 31.6 L841.8 34.9 L838.2 37.0 L834.3 37.7 L830.7 37.3 L827.6 35.8 L825.4 33.7 L824.1 31.2" stroke="#2f2236"/>
<path d="M884.3 6.8 L892.6 0.8 L901.9 -2.9 L911.7 -4.2 L921.2 -2.9 L930.0 0.6 L937.4 6.1 L943.0 13.0 L946.7 21.0 L948.2 29.5 L947.5 37.8 L944.8 45.5 L940.4 52.1 L934.7 57.2 L928.0 60.7 L920.9 62.3 L913.8 62.0 L907.2 60.1 L901.5 56.6 L897.0 52.0 L893.9 46.5 L892.3 40.7 L892.3 34.8 L893.7 29.4 L896.4 24.7 L900.0 20.9 L904.3 18.3 L908.9 17.0 L913.5 16.9 L917.7 17.9 L921.4 19.9 L924.2 22.6 L926.2 25.8 L927.2 29.2 L927.3 32.5 L926.5 35.6 L925.0 38.1 L923.1 40.0 L920.9 41.3 L918.6 41.8 L916.5 41.6" stroke="#6a4468"/>
<path d="M1006.5 -11.1 L1020.5 -8.5 L1032.5 -1.4 L1041.2 9.2 L1045.7 21.8 L1045.6 34.8 L1041.2 46.8 L1033.2 56.4 L1022.7 62.5 L1011.0 64.6 L999.5 62.7 L989.7 57.1 L982.6 48.7 L978.8 38.7 L978.7 28.2 L982.0 18.7 L988.3 11.1 L996.5 6.2 L1005.5 4.4 L1014.4 5.8 L1022.0 10.1 L1027.4 16.4 L1030.3 23.9 L1030.4 31.7 L1028.0 38.8 L1023.4 44.4 L1017.5 47.9 L1011.0 49.1 L1004.7 48.1 L999.5 45.1 L995.8 40.7 L994.0 35.5 L994.0 30.4 L995.7 25.8 L998.8 22.4 L1002.6 20.4 L1006.5 19.8 L1010.1 20.7 L1013.0 22.6 L1014.8 25.2 L1015.4 28.0" stroke="#52385a"/>
<path d="M1100.3 68.5 L1088.1 64.3 L1078.0 56.8 L1070.6 46.8 L1066.6 35.4 L1066.2 23.5 L1069.2 12.3 L1075.3 2.8 L1083.7 -4.4 L1093.6 -8.6 L1104.1 -9.7 L1114.1 -7.7 L1122.9 -3.0 L1129.7 4.0 L1134.0 12.4 L1135.6 21.5 L1134.4 30.3 L1130.8 38.2 L1125.1 44.4 L1118.2 48.5 L1110.5 50.4 L1102.9 49.8 L1096.1 47.2 L1090.6 42.8 L1086.8 37.1 L1084.9 30.8 L1085.0 24.6 L1086.9 18.9 L1090.3 14.2 L1094.7 10.9 L1099.6 9.2 L1104.6 9.1 L1109.1 10.4 L1112.7 12.9 L1115.3 16.2 L1116.7 19.9 L1116.8 23.5 L1115.9 26.8 L1114.1 29.4 L1111.8 31.1 L1109.3 31.9" stroke="#6a4468"/>
<path d="M1147.6 21.6 L1152.5 7.4 L1161.7 -3.9 L1174.0 -11.3 L1187.7 -14.1 L1201.3 -12.0 L1213.1 -5.6 L1221.8 4.2 L1226.5 16.1 L1226.9 28.6 L1223.1 40.2 L1215.8 49.5 L1206.0 55.6 L1195.0 58.0 L1184.1 56.5 L1174.7 51.6 L1167.8 43.9 L1163.9 34.7 L1163.5 25.0 L1166.4 16.0 L1171.9 8.8 L1179.3 4.1 L1187.6 2.2 L1195.7 3.3 L1202.7 7.0 L1207.8 12.6 L1210.5 19.3 L1210.8 26.2 L1208.7 32.5 L1204.8 37.5 L1199.7 40.7 L1194.1 41.8 L1188.7 40.9 L1184.3 38.4 L1181.2 34.8 L1179.6 30.5 L1179.7 26.3 L1181.1 22.7 L1183.6 20.0 L1186.5 18.6 L1189.5 18.3" stroke="#2f2236"/>
<path d="M1303.5 80.6 L1286.3 82.1 L1270.0 77.8 L1256.4 68.4 L1247.1 55.2 L1242.9 40.0 L1244.0 24.6 L1250.2 10.8 L1260.5 0.3 L1273.4 -6.0 L1287.4 -7.5 L1300.6 -4.2 L1311.7 3.2 L1319.4 13.6 L1322.9 25.7 L1322.2 37.9 L1317.4 48.8 L1309.5 57.2 L1299.5 62.2 L1288.7 63.5 L1278.5 61.0 L1270.1 55.5 L1264.3 47.6 L1261.6 38.6 L1262.1 29.6 L1265.6 21.6 L1271.4 15.5 L1278.5 12.0 L1286.1 11.2 L1293.2 12.9 L1298.9 16.9 L1302.8 22.2 L1304.4 28.2 L1303.9 34.1 L1301.5 39.1 L1297.7 42.7 L1293.3 44.6 L1288.8 44.8 L1284.9 43.5 L1281.9 41.1 L1280.3 38.0" stroke="#3a2740"/>
<path d="M1.8 90.3 L1.4 105.1 L-3.9 118.6 L-13.3 129.3 L-25.5 136.0 L-39.0 138.1 L-52.0 135.5 L-63.1 128.8 L-71.1 119.0 L-75.2 107.3 L-75.1 95.3 L-71.0 84.3 L-63.6 75.5 L-53.9 70.0 L-43.2 68.2 L-32.8 70.1 L-24.0 75.2 L-17.6 82.8 L-14.3 91.9 L-14.3 101.2 L-17.4 109.7 L-23.0 116.3 L-30.3 120.5 L-38.3 121.9 L-45.9 120.6 L-52.4 116.8 L-57.0 111.3 L-59.3 104.8 L-59.3 98.2 L-57.0 92.3 L-53.1 87.8 L-48.2 85.1 L-42.9 84.3 L-37.9 85.3 L-33.9 87.9 L-31.2 91.4 L-30.0 95.4 L-30.3 99.3 L-31.8 102.5 L-34.1 104.8 L-36.9 105.9" stroke="#2f2236"/>
<path d="M96.1 125.9 L88.4 135.5 L78.7 142.7 L67.8 147.2 L56.3 148.7 L45.1 147.4 L34.8 143.4 L26.0 137.1 L19.3 129.0 L14.9 119.7 L13.1 109.8 L13.8 100.0 L16.8 91.0 L21.8 83.2 L28.5 77.1 L36.3 73.0 L44.6 71.1 L52.9 71.3 L60.6 73.5 L67.2 77.5 L72.5 82.8 L76.2 89.1 L78.0 95.9 L78.1 102.6 L76.5 108.9 L73.5 114.4 L69.3 118.8 L64.4 121.8 L59.1 123.3 L53.9 123.5 L49.0 122.4 L44.8 120.1 L41.5 117.0 L39.3 113.4 L38.2 109.5 L38.1 105.7 L39.0 102.3 L40.7 99.5 L42.9 97.4 L45.3 96.1 L47.9 95.6" stroke="#3a2740"/>
<path d="M93.8 75.0 L103.2 66.9 L114.1 61.4 L125.8 58.9 L137.5 59.4 L148.4 62.8 L157.9 68.6 L165.5 76.5 L170.7 85.7 L173.4 95.8 L173.4 105.9 L171.0 115.5 L166.4 124.0 L159.9 130.8 L152.2 135.6 L143.8 138.3 L135.2 138.7 L127.0 137.0 L119.7 133.4 L113.8 128.3 L109.5 122.0 L107.0 115.1 L106.4 108.1 L107.6 101.4 L110.3 95.4 L114.3 90.5 L119.2 86.9 L124.6 84.8 L130.1 84.2 L135.4 85.0 L140.0 87.0 L143.8 90.0 L146.5 93.6 L148.0 97.7 L148.4 101.7 L147.8 105.4 L146.3 108.7 L144.2 111.2 L141.6 112.9 L138.9 113.7 L136.3 113.8" stroke="#6a4468"/>
<path d="M183.4 110.2 L185.7 98.8 L190.6 88.5 L197.7 80.0 L206.6 73.7 L216.6 69.9 L226.9 68.7 L237.0 70.1 L246.2 74.0 L253.9 79.8 L259.8 87.3 L263.5 95.7 L265.0 104.6 L264.1 113.3 L261.2 121.3 L256.5 128.1 L250.5 133.4 L243.5 136.8 L236.1 138.4 L228.7 138.0 L222.0 135.8 L216.2 132.2 L211.7 127.3 L208.7 121.7 L207.2 115.8 L207.3 109.9 L208.9 104.4 L211.7 99.8 L215.4 96.1 L219.7 93.7 L224.3 92.5 L228.8 92.6 L232.9 93.7 L236.3 95.8 L239.0 98.5 L240.7 101.6 L241.4 104.9 L241.3 107.9 L240.4 110.7 L238.9 112.8 L237.0 114.4" stroke="#2f2236"/>
<path d="M273.2 116.1 L271.8 99.1 L276.3 83.0 L285.7 69.7 L298.8 60.5 L313.9 56.5 L329.1 57.8 L342.6 64.0 L353.0 74.3 L359.1 87.1 L360.4 100.9 L357.1 114.0 L349.7 124.9 L339.3 132.4 L327.3 135.8 L315.2 134.9 L304.5 130.1 L296.3 122.2 L291.4 112.3 L290.3 101.6 L292.7 91.6 L298.3 83.3 L306.1 77.6 L315.1 75.0 L324.0 75.6 L331.9 79.1 L337.8 84.9 L341.2 92.0 L342.0 99.5 L340.2 106.5 L336.2 112.1 L330.9 115.9 L324.9 117.4 L319.2 116.9 L314.2 114.5 L310.7 110.7 L308.9 106.3 L308.7 101.9 L310.0 98.0 L312.5 95.1 L315.5 93.5" stroke="#52385a"/>
<path d="M439.4 68.1 L446.9 75.4 L452.3 84.3 L455.2 93.9 L455.6 103.8 L453.6 113.3 L449.3 121.7 L443.2 128.7 L435.7 133.8 L427.4 136.7 L418.9 137.5 L410.6 136.1 L403.2 132.8 L396.9 127.8 L392.3 121.7 L389.5 114.7 L388.5 107.5 L389.3 100.4 L391.9 94.1 L395.8 88.7 L400.8 84.6 L406.4 82.1 L412.3 81.0 L418.1 81.5 L423.4 83.4 L427.8 86.4 L431.1 90.3 L433.3 94.7 L434.2 99.4 L433.9 103.9 L432.5 107.9 L430.3 111.3 L427.4 113.8 L424.1 115.4 L420.7 116.1 L417.5 115.8 L414.7 114.8 L412.4 113.1 L410.8 111.1 L409.9 108.9 L409.6 106.7" stroke="#3a2740"/>
<path d="M494.0 61.5 L504.6 61.2 L514.7 63.5 L523.8 68.2 L531.2 74.8 L536.6 83.0 L539.7 92.0 L540.4 101.3 L538.8 110.2 L535.1 118.3 L529.7 125.0 L522.9 130.0 L515.2 133.0 L507.3 134.0 L499.6 133.0 L492.6 130.2 L486.7 125.8 L482.2 120.3 L479.4 114.0 L478.2 107.4 L478.8 100.9 L480.9 95.0 L484.3 90.1 L488.7 86.2 L493.8 83.8 L499.1 82.7 L504.2 83.0 L508.9 84.6 L512.9 87.2 L515.9 90.5 L517.9 94.4 L518.8 98.4 L518.6 102.3 L517.4 105.8 L515.5 108.6 L513.0 110.8 L510.3 112.1 L507.5 112.6 L504.9 112.3 L502.7 111.4 L500.9 110.0" stroke="#6a4468"/>
<path d="M633.3 123.0 L623.8 134.0 L611.4 141.0 L597.6 143.3 L584.3 140.8 L572.7 134.1 L564.4 124.1 L560.1 112.1 L560.1 99.7 L564.2 88.3 L571.7 79.2 L581.7 73.4 L592.7 71.4 L603.5 73.2 L612.8 78.4 L619.5 86.2 L623.0 95.6 L623.2 105.3 L620.0 114.2 L614.3 121.3 L606.7 125.8 L598.3 127.4 L590.2 126.1 L583.3 122.2 L578.3 116.5 L575.7 109.6 L575.6 102.6 L577.9 96.2 L582.0 91.2 L587.3 88.1 L593.1 87.1 L598.5 88.1 L603.0 90.8 L606.2 94.7 L607.7 99.1 L607.5 103.4 L605.9 107.2 L603.3 110.0 L600.2 111.5 L597.0 111.7 L594.2 110.9" stroke="#2f2236"/>
<path d="M713.8 73.7 L721.4 80.5 L726.9 88.9 L730.1 98.2 L730.8 107.8 L729.1 117.0 L725.3 125.3 L719.6 132.3 L712.5 137.5 L704.6 140.6 L696.3 141.6 L688.2 140.6 L680.9 137.6 L674.7 133.0 L670.0 127.2 L667.0 120.6 L665.8 113.6 L666.4 106.7 L668.6 100.5 L672.2 95.1 L676.9 91.0 L682.3 88.3 L688.0 87.1 L693.6 87.4 L698.8 89.1 L703.2 91.8 L706.6 95.5 L708.8 99.7 L709.9 104.2 L709.7 108.5 L708.5 112.5 L706.4 115.9 L703.7 118.4 L700.6 120.1 L697.3 120.8 L694.2 120.7 L691.4 119.8 L689.2 118.3 L687.5 116.3 L686.6 114.2 L686.3 112.1" stroke="#52385a"/>
<path d="M733.5 97.3 L737.7 83.1 L745.7 71.0 L756.7 62.0 L769.6 56.8 L783.1 55.6 L796.1 58.4 L807.4 64.8 L816.1 74.0 L821.5 85.2 L823.4 97.1 L821.7 108.7 L816.7 119.1 L809.1 127.2 L799.7 132.6 L789.4 135.0 L779.2 134.1 L770.0 130.4 L762.6 124.3 L757.4 116.6 L754.9 107.9 L755.1 99.2 L757.7 91.2 L762.5 84.6 L768.7 80.0 L775.8 77.5 L783.0 77.2 L789.6 79.1 L795.2 82.7 L799.2 87.5 L801.4 93.1 L801.8 98.7 L800.6 104.0 L797.9 108.3 L794.3 111.5 L790.2 113.2 L786.0 113.6 L782.2 112.7 L779.2 110.8 L777.0 108.3 L776.0 105.5" stroke="#46304c"/>
<path d="M893.5 68.4 L902.4 74.4 L909.3 82.3 L914.0 91.5 L916.2 101.3 L915.8 111.1 L913.1 120.3 L908.2 128.4 L901.7 134.8 L893.9 139.2 L885.5 141.5 L877.0 141.6 L868.9 139.7 L861.8 135.8 L856.1 130.5 L852.0 124.0 L849.7 117.0 L849.3 109.8 L850.6 103.0 L853.6 96.9 L857.9 91.9 L863.1 88.3 L868.8 86.2 L874.6 85.7 L880.2 86.6 L885.2 88.9 L889.3 92.2 L892.2 96.2 L893.9 100.7 L894.5 105.2 L893.8 109.5 L892.2 113.3 L889.7 116.4 L886.7 118.5 L883.5 119.8 L880.2 120.1 L877.2 119.6 L874.6 118.3 L872.6 116.6 L871.3 114.5 L870.7 112.4" stroke="#6a4468"/>
<path d="M956.2 65.5 L967.3 65.7 L977.8 68.5 L987.1 73.8 L994.6 81.1 L999.9 89.9 L1002.7 99.4 L1003.1 109.2 L1001.1 118.5 L996.8 126.8 L990.8 133.6 L983.5 138.5 L975.4 141.4 L967.0 142.1 L959.0 140.7 L951.8 137.5 L945.8 132.6 L941.3 126.6 L938.6 119.9 L937.7 112.9 L938.6 106.2 L941.1 100.1 L944.9 95.1 L949.6 91.3 L955.0 88.9 L960.6 88.0 L966.0 88.5 L970.9 90.4 L974.9 93.3 L978.0 96.9 L979.8 101.0 L980.6 105.3 L980.2 109.3 L978.8 112.9 L976.7 115.9 L974.1 118.0 L971.1 119.2 L968.2 119.6 L965.5 119.2 L963.2 118.2 L961.4 116.7" stroke="#3a2740"/>
<path d="M1035.1 68.0 L1045.3 63.0 L1056.1 60.7 L1067.0 61.3 L1077.1 64.4 L1086.0 69.9 L1093.0 77.3 L1097.8 85.9 L1100.3 95.3 L1100.3 104.8 L1098.0 113.7 L1093.6 121.6 L1087.6 128.0 L1080.3 132.5 L1072.4 134.9 L1064.4 135.3 L1056.7 133.7 L1049.9 130.3 L1044.3 125.5 L1040.3 119.6 L1038.0 113.0 L1037.4 106.4 L1038.5 100.0 L1041.1 94.4 L1044.9 89.7 L1049.5 86.3 L1054.7 84.3 L1059.9 83.8 L1064.9 84.5 L1069.4 86.4 L1073.0 89.3 L1075.6 92.8 L1077.1 96.6 L1077.6 100.5 L1077.0 104.2 L1075.6 107.3 L1073.5 109.8 L1071.0 111.5 L1068.4 112.4 L1065.8 112.6 L1063.5 112.0" stroke="#52385a"/>
<path d="M1105.9 117.7 L1106.2 106.5 L1109.3 96.1 L1114.7 86.9 L1122.1 79.6 L1130.9 74.5 L1140.6 71.8 L1150.3 71.6 L1159.6 73.8 L1167.8 78.1 L1174.4 84.2 L1179.3 91.6 L1182.0 99.8 L1182.5 108.2 L1181.0 116.2 L1177.6 123.3 L1172.7 129.2 L1166.6 133.6 L1159.9 136.2 L1152.9 136.9 L1146.2 135.9 L1140.2 133.4 L1135.2 129.5 L1131.5 124.6 L1129.2 119.2 L1128.4 113.6 L1129.0 108.3 L1130.9 103.4 L1133.9 99.4 L1137.6 96.5 L1141.7 94.7 L1146.0 94.0 L1150.0 94.5 L1153.6 95.9 L1156.5 98.0 L1158.6 100.7 L1159.8 103.7 L1160.1 106.6 L1159.7 109.3 L1158.6 111.6 L1157.1 113.3" stroke="#52385a"/>
<path d="M1236.4 149.0 L1221.0 144.3 L1208.4 134.9 L1199.9 122.0 L1196.4 107.4 L1198.1 92.7 L1204.5 79.8 L1214.6 70.0 L1227.2 64.5 L1240.6 63.5 L1253.2 67.1 L1263.5 74.6 L1270.5 84.8 L1273.5 96.5 L1272.4 108.3 L1267.5 118.6 L1259.6 126.4 L1249.8 130.9 L1239.4 131.7 L1229.6 129.0 L1221.6 123.4 L1216.3 115.6 L1214.0 106.8 L1214.8 98.0 L1218.4 90.4 L1224.2 84.7 L1231.3 81.5 L1238.7 80.9 L1245.6 82.8 L1251.1 86.8 L1254.7 92.2 L1256.2 98.2 L1255.5 104.0 L1253.0 108.9 L1249.2 112.4 L1244.7 114.2 L1240.2 114.3 L1236.2 112.9 L1233.3 110.4 L1231.6 107.3 L1231.2 104.1" stroke="#6a4468"/>
<path d="M19.8 220.2 L8.9 223.8 L-2.4 224.4 L-13.2 222.3 L-22.9 217.7 L-31.0 210.9 L-37.0 202.4 L-40.6 193.0 L-41.7 183.2 L-40.3 173.7 L-36.7 165.0 L-31.1 157.8 L-24.1 152.3 L-16.2 148.8 L-7.8 147.5 L0.3 148.3 L7.8 151.0 L14.1 155.4 L19.0 161.1 L22.2 167.7 L23.6 174.5 L23.2 181.3 L21.1 187.5 L17.7 192.9 L13.2 197.0 L8.1 199.7 L2.6 200.9 L-2.8 200.8 L-7.7 199.3 L-11.9 196.7 L-15.1 193.3 L-17.2 189.4 L-18.2 185.3 L-18.0 181.3 L-16.9 177.7 L-15.0 174.8 L-12.6 172.6 L-9.9 171.2 L-7.1 170.7 L-4.5 170.9 L-2.2 171.8" stroke="#46304c"/>
<path d="M95.9 227.6 L79.6 226.9 L64.7 220.8 L53.0 210.2 L45.8 196.6 L43.7 181.7 L46.8 167.3 L54.3 155.1 L65.3 146.4 L78.3 142.0 L91.7 142.4 L103.8 147.1 L113.3 155.5 L119.3 166.3 L121.1 178.2 L118.9 189.6 L113.1 199.3 L104.5 206.2 L94.5 209.7 L84.2 209.6 L74.8 206.0 L67.5 199.7 L63.0 191.6 L61.6 182.7 L63.2 174.3 L67.5 167.2 L73.7 162.2 L80.9 159.7 L88.2 159.9 L94.6 162.4 L99.6 166.8 L102.5 172.4 L103.3 178.2 L102.1 183.7 L99.2 188.1 L95.2 191.1 L90.8 192.3 L86.5 191.9 L83.0 190.2 L80.5 187.6 L79.3 184.5" stroke="#52385a"/>
<path d="M191.4 218.9 L181.8 217.3 L173.1 213.4 L165.8 207.5 L160.3 200.2 L156.9 191.9 L155.7 183.2 L156.7 174.7 L159.8 166.9 L164.5 160.3 L170.7 155.2 L177.7 151.9 L185.1 150.5 L192.5 151.0 L199.3 153.3 L205.1 157.1 L209.6 162.2 L212.7 168.0 L214.1 174.2 L213.9 180.3 L212.2 186.0 L209.3 191.0 L205.3 194.9 L200.6 197.5 L195.6 198.8 L190.7 198.8 L186.1 197.6 L182.1 195.4 L179.0 192.3 L176.9 188.7 L175.8 184.9 L175.7 181.2 L176.6 177.7 L178.3 174.8 L180.5 172.5 L183.1 171.0 L185.8 170.3 L188.4 170.4 L190.7 171.1 L192.6 172.3 L193.9 173.9" stroke="#46304c"/>
<path d="M288.8 137.6 L298.7 144.2 L306.1 153.3 L310.4 164.0 L311.3 175.2 L309.0 185.9 L303.7 195.2 L296.0 202.4 L286.8 206.9 L276.9 208.4 L267.3 206.9 L258.7 202.8 L252.0 196.5 L247.5 188.7 L245.6 180.1 L246.3 171.6 L249.4 164.0 L254.4 157.8 L260.9 153.5 L268.2 151.4 L275.4 151.5 L282.1 153.8 L287.6 157.7 L291.6 163.0 L293.7 168.9 L293.9 175.0 L292.3 180.6 L289.3 185.3 L285.2 188.7 L280.5 190.6 L275.7 190.9 L271.2 189.9 L267.5 187.7 L264.7 184.6 L263.2 181.1 L262.8 177.5 L263.6 174.2 L265.2 171.4 L267.3 169.5 L269.8 168.5 L272.2 168.4" stroke="#46304c"/>
<path d="M371.4 140.5 L383.8 142.9 L394.8 148.7 L403.3 157.3 L408.8 167.8 L410.9 179.2 L409.5 190.5 L405.0 200.6 L397.9 208.7 L388.9 214.2 L378.9 216.8 L368.9 216.3 L359.7 212.9 L352.2 207.2 L346.8 199.6 L344.0 191.1 L343.9 182.3 L346.3 174.2 L350.8 167.4 L357.0 162.4 L364.2 159.5 L371.6 158.9 L378.6 160.5 L384.5 164.0 L389.0 169.0 L391.7 174.8 L392.5 180.9 L391.5 186.7 L388.9 191.7 L385.1 195.4 L380.6 197.8 L375.8 198.6 L371.2 198.0 L367.3 196.1 L364.3 193.3 L362.5 189.9 L361.9 186.4 L362.3 183.1 L363.6 180.4 L365.6 178.4 L367.9 177.2" stroke="#46304c"/>
<path d="M424.4 161.2 L431.5 152.5 L440.7 146.4 L451.0 143.3 L461.6 143.4 L471.4 146.6 L479.7 152.4 L485.8 160.2 L489.1 169.3 L489.7 178.7 L487.5 187.6 L482.8 195.2 L476.3 201.0 L468.6 204.5 L460.4 205.6 L452.5 204.2 L445.6 200.6 L440.2 195.3 L436.8 188.8 L435.4 181.8 L436.2 175.0 L438.9 168.9 L443.1 164.1 L448.4 160.9 L454.2 159.5 L459.9 159.8 L465.0 161.7 L469.1 165.0 L471.9 169.1 L473.3 173.7 L473.2 178.3 L471.9 182.4 L469.4 185.7 L466.3 188.0 L462.9 189.1 L459.4 189.1 L456.4 188.2 L454.0 186.4 L452.4 184.2 L451.7 181.8 L451.7 179.5" stroke="#52385a"/>
<path d="M585.7 205.5 L577.6 213.5 L568.0 219.1 L557.5 222.1 L546.8 222.3 L536.7 219.9 L527.6 215.2 L520.3 208.5 L514.9 200.3 L511.9 191.3 L511.2 182.1 L512.8 173.2 L516.6 165.2 L522.0 158.6 L528.8 153.7 L536.3 150.7 L544.1 149.8 L551.7 150.9 L558.6 153.7 L564.3 158.0 L568.6 163.5 L571.2 169.7 L572.2 176.1 L571.6 182.3 L569.5 187.9 L566.1 192.6 L561.9 196.2 L557.1 198.4 L552.1 199.3 L547.2 198.9 L542.9 197.3 L539.3 194.8 L536.6 191.6 L534.9 188.1 L534.3 184.4 L534.6 181.0 L535.8 177.9 L537.6 175.5 L539.8 173.8 L542.2 172.9 L544.6 172.7" stroke="#46304c"/>
<path d="M667.6 146.9 L676.1 156.4 L681.3 167.6 L683.0 179.7 L681.0 191.5 L675.8 201.9 L667.9 210.1 L658.2 215.5 L647.5 217.8 L637.0 216.8 L627.4 212.8 L619.6 206.3 L614.3 198.0 L611.7 188.8 L612.0 179.5 L614.9 171.0 L620.1 163.9 L626.9 158.8 L634.7 156.0 L642.7 155.8 L650.2 157.8 L656.5 161.8 L661.2 167.4 L663.8 173.8 L664.5 180.5 L663.1 186.8 L660.1 192.1 L655.7 196.2 L650.6 198.6 L645.3 199.3 L640.2 198.5 L635.9 196.3 L632.6 193.0 L630.6 189.1 L629.9 185.1 L630.5 181.2 L632.1 178.0 L634.4 175.7 L637.2 174.3 L640.0 173.8 L642.5 174.3" stroke="#3a2740"/>
<path d="M778.0 169.9 L777.8 183.9 L773.6 196.9 L765.8 207.9 L755.4 215.9 L743.3 220.4 L730.8 221.1 L718.9 218.1 L708.6 211.9 L700.9 203.1 L696.2 192.7 L694.8 181.7 L696.7 171.0 L701.6 161.6 L708.8 154.3 L717.6 149.6 L727.1 147.8 L736.4 148.9 L744.8 152.5 L751.4 158.3 L755.9 165.6 L757.9 173.6 L757.5 181.5 L754.8 188.7 L750.3 194.5 L744.5 198.6 L738.0 200.6 L731.5 200.6 L725.5 198.7 L720.7 195.3 L717.2 190.8 L715.4 185.8 L715.2 180.7 L716.5 176.0 L719.0 172.3 L722.4 169.6 L726.1 168.2 L729.8 168.1 L733.0 169.0 L735.6 170.8 L737.3 173.1" stroke="#2f2236"/>
<path d="M852.4 139.8 L863.1 153.0 L868.5 168.6 L868.2 184.9 L862.6 199.7 L852.5 211.5 L839.3 219.0 L824.7 221.4 L810.4 218.9 L798.2 211.8 L789.4 201.2 L784.8 188.6 L784.7 175.5 L789.1 163.5 L797.0 154.0 L807.4 147.9 L818.9 145.8 L830.0 147.7 L839.6 153.1 L846.5 161.2 L850.1 170.9 L850.2 180.8 L847.0 189.8 L841.1 197.0 L833.4 201.5 L825.0 203.0 L816.9 201.6 L810.1 197.7 L805.3 192.0 L802.9 185.2 L802.9 178.4 L805.2 172.4 L809.2 167.7 L814.3 164.9 L819.7 164.2 L824.6 165.2 L828.6 167.8 L831.2 171.4 L832.3 175.3 L832.0 179.0 L830.4 182.0" stroke="#2f2236"/>
<path d="M955.8 168.6 L955.1 182.0 L950.0 194.1 L941.2 203.6 L930.0 209.4 L917.8 211.0 L906.0 208.4 L896.0 202.1 L889.0 193.1 L885.5 182.4 L885.9 171.4 L889.9 161.5 L896.8 153.8 L905.7 149.0 L915.5 147.6 L924.8 149.5 L932.7 154.3 L938.4 161.4 L941.1 169.7 L940.9 178.1 L937.9 185.7 L932.7 191.6 L926.0 195.3 L918.8 196.4 L911.8 195.0 L906.0 191.4 L902.0 186.3 L900.0 180.4 L900.2 174.4 L902.4 169.1 L906.0 165.1 L910.6 162.8 L915.4 162.2 L919.9 163.2 L923.5 165.6 L925.8 168.9 L926.8 172.5 L926.5 176.0 L925.1 178.9 L922.9 180.9 L920.3 181.9" stroke="#3a2740"/>
<path d="M1056.9 206.4 L1047.6 216.3 L1036.1 222.8 L1023.4 225.7 L1010.7 224.6 L999.2 220.0 L989.7 212.4 L983.1 202.5 L979.8 191.4 L979.9 180.1 L983.3 169.5 L989.5 160.7 L997.8 154.3 L1007.4 150.8 L1017.3 150.2 L1026.6 152.6 L1034.6 157.4 L1040.7 164.3 L1044.3 172.3 L1045.3 180.8 L1043.8 188.9 L1040.0 195.9 L1034.6 201.4 L1028.0 204.8 L1021.0 206.0 L1014.1 205.2 L1008.2 202.4 L1003.5 198.2 L1000.5 192.9 L999.2 187.3 L999.6 181.9 L1001.6 177.1 L1004.8 173.3 L1008.7 170.8 L1013.0 169.7 L1017.1 170.0 L1020.7 171.4 L1023.4 173.7 L1025.1 176.5 L1025.8 179.5 L1025.5 182.2" stroke="#3a2740"/>
<path d="M1070.5 140.3 L1080.6 135.4 L1091.3 133.3 L1102.0 133.9 L1112.0 137.0 L1120.7 142.5 L1127.6 149.8 L1132.3 158.4 L1134.7 167.7 L1134.6 177.0 L1132.3 185.8 L1127.9 193.6 L1121.9 199.8 L1114.8 204.2 L1106.9 206.6 L1099.0 206.9 L1091.4 205.3 L1084.7 201.9 L1079.2 197.1 L1075.3 191.2 L1073.1 184.8 L1072.5 178.2 L1073.7 171.9 L1076.2 166.4 L1080.0 161.8 L1084.6 158.5 L1089.7 156.6 L1094.9 156.0 L1099.8 156.8 L1104.2 158.7 L1107.8 161.5 L1110.3 165.0 L1111.8 168.8 L1112.2 172.7 L1111.6 176.3 L1110.2 179.4 L1108.1 181.8 L1105.7 183.5 L1103.1 184.4 L1100.5 184.5 L1098.3 183.9" stroke="#52385a"/>
<path d="M1187.4 139.8 L1200.4 138.4 L1213.0 140.8 L1224.0 146.8 L1232.6 155.5 L1238.2 166.2 L1240.2 177.7 L1238.8 189.1 L1234.3 199.3 L1227.0 207.5 L1217.9 213.1 L1207.8 215.6 L1197.7 215.1 L1188.5 211.6 L1180.9 205.8 L1175.5 198.2 L1172.8 189.6 L1172.7 180.8 L1175.1 172.6 L1179.7 165.8 L1185.9 160.8 L1193.1 158.0 L1200.5 157.5 L1207.5 159.2 L1213.4 162.7 L1217.8 167.6 L1220.5 173.4 L1221.2 179.4 L1220.2 185.2 L1217.5 190.1 L1213.8 193.8 L1209.3 196.0 L1204.6 196.8 L1200.1 196.1 L1196.3 194.2 L1193.5 191.5 L1191.8 188.2 L1191.2 184.8 L1191.7 181.6 L1193.1 179.0 L1195.0 177.2" stroke="#3a2740"/>
<path d="M1245.2 210.2 L1239.3 199.3 L1236.4 187.5 L1236.5 175.6 L1239.5 164.4 L1245.1 154.5 L1252.8 146.5 L1262.1 140.8 L1272.3 137.7 L1282.7 137.3 L1292.5 139.4 L1301.3 143.8 L1308.6 150.2 L1313.8 157.9 L1316.9 166.5 L1317.6 175.3 L1316.2 183.8 L1312.8 191.4 L1307.7 197.7 L1301.4 202.3 L1294.4 205.1 L1287.1 206.0 L1280.1 205.1 L1273.8 202.5 L1268.6 198.6 L1264.7 193.7 L1262.3 188.1 L1261.4 182.4 L1262.0 176.9 L1263.9 171.9 L1266.9 167.9 L1270.6 164.8 L1274.7 163.0 L1279.0 162.4 L1283.0 162.8 L1286.5 164.2 L1289.3 166.4 L1291.3 169.0 L1292.4 171.9 L1292.7 174.7 L1292.1 177.2" stroke="#46304c"/>
<path d="M-50.4 293.6 L-62.5 288.5 L-72.4 280.2 L-79.2 269.7 L-82.6 257.8 L-82.2 245.8 L-78.5 234.6 L-71.7 225.3 L-62.7 218.6 L-52.4 214.9 L-41.7 214.4 L-31.7 217.1 L-23.1 222.4 L-16.6 229.9 L-12.8 238.7 L-11.8 248.0 L-13.5 256.9 L-17.7 264.7 L-23.7 270.7 L-31.1 274.4 L-39.0 275.8 L-46.6 274.8 L-53.4 271.6 L-58.7 266.8 L-62.2 260.9 L-63.7 254.4 L-63.2 248.0 L-60.9 242.3 L-57.2 237.8 L-52.6 234.8 L-47.5 233.4 L-42.4 233.6 L-37.9 235.2 L-34.4 237.9 L-31.9 241.4 L-30.8 245.2 L-30.9 248.9 L-32.0 252.2 L-34.0 254.7 L-36.4 256.3 L-39.0 257.0" stroke="#52385a"/>
<path d="M5.9 247.7 L11.2 238.2 L18.4 230.4 L27.3 224.9 L37.0 221.7 L46.9 221.2 L56.5 223.1 L65.1 227.2 L72.2 233.2 L77.4 240.7 L80.5 249.0 L81.4 257.5 L80.2 265.9 L77.0 273.4 L72.1 279.7 L66.0 284.5 L59.1 287.4 L51.9 288.5 L44.8 287.8 L38.4 285.4 L33.0 281.5 L28.9 276.6 L26.3 271.0 L25.2 265.2 L25.6 259.4 L27.4 254.2 L30.3 249.8 L34.1 246.4 L38.4 244.2 L43.0 243.3 L47.4 243.6 L51.4 244.9 L54.7 247.1 L57.2 249.9 L58.8 253.0 L59.4 256.3 L59.1 259.4 L58.1 262.1 L56.6 264.3 L54.6 265.8 L52.5 266.6" stroke="#3a2740"/>
<path d="M157.8 297.1 L147.6 298.6 L137.6 297.5 L128.3 294.0 L120.4 288.4 L114.3 281.2 L110.2 272.9 L108.5 264.0 L109.0 255.2 L111.6 247.0 L116.2 239.9 L122.1 234.3 L129.2 230.5 L136.7 228.6 L144.3 228.7 L151.4 230.6 L157.6 234.1 L162.5 239.0 L166.0 244.8 L167.8 251.0 L168.0 257.3 L166.6 263.2 L163.9 268.4 L160.1 272.6 L155.5 275.6 L150.5 277.2 L145.5 277.5 L140.7 276.5 L136.6 274.5 L133.3 271.6 L131.0 268.1 L129.7 264.3 L129.5 260.5 L130.2 257.0 L131.7 254.0 L133.8 251.7 L136.3 250.1 L138.9 249.3 L141.5 249.3 L143.7 249.9 L145.6 251.0" stroke="#6a4468"/>
<path d="M267.7 232.3 L270.7 243.9 L270.2 255.5 L266.4 266.3 L259.6 275.2 L250.8 281.6 L240.6 285.0 L230.2 285.3 L220.4 282.5 L212.0 277.1 L205.8 269.7 L202.2 260.9 L201.3 251.7 L203.2 243.0 L207.4 235.3 L213.6 229.5 L220.9 225.8 L228.8 224.6 L236.5 225.7 L243.3 228.9 L248.6 233.8 L252.1 239.9 L253.5 246.5 L253.0 253.0 L250.6 258.8 L246.8 263.5 L241.9 266.6 L236.6 268.1 L231.3 267.9 L226.5 266.2 L222.6 263.3 L220.0 259.6 L218.7 255.5 L218.7 251.4 L219.9 247.7 L222.0 244.8 L224.7 242.8 L227.7 241.8 L230.6 241.9 L233.1 242.7 L235.1 244.2" stroke="#46304c"/>
<path d="M302.5 215.4 L316.1 212.6 L329.6 213.8 L341.8 218.9 L351.8 227.2 L358.8 237.8 L362.2 249.7 L361.9 261.8 L358.2 273.0 L351.4 282.4 L342.4 289.2 L332.1 293.0 L321.4 293.5 L311.3 290.8 L302.7 285.5 L296.3 278.1 L292.5 269.3 L291.4 260.1 L293.1 251.3 L297.3 243.6 L303.3 237.7 L310.5 234.0 L318.2 232.6 L325.7 233.6 L332.4 236.7 L337.5 241.4 L340.9 247.2 L342.3 253.5 L341.8 259.6 L339.6 265.1 L336.0 269.4 L331.5 272.2 L326.7 273.5 L321.9 273.3 L317.8 271.7 L314.5 269.1 L312.3 265.8 L311.4 262.3 L311.6 258.9 L312.7 256.1 L314.6 253.9" stroke="#46304c"/>
<path d="M421.6 299.9 L409.5 300.8 L397.9 298.7 L387.4 293.9 L378.6 286.7 L372.0 277.7 L368.0 267.7 L366.7 257.1 L368.0 246.9 L371.8 237.5 L377.6 229.6 L385.1 223.5 L393.6 219.7 L402.5 218.1 L411.4 218.8 L419.5 221.6 L426.4 226.3 L431.8 232.4 L435.4 239.4 L437.0 246.8 L436.7 254.2 L434.6 261.0 L431.0 266.9 L426.2 271.4 L420.6 274.5 L414.7 276.0 L408.8 275.9 L403.3 274.4 L398.7 271.7 L395.0 268.0 L392.6 263.8 L391.4 259.2 L391.5 254.8 L392.6 250.8 L394.6 247.4 L397.2 244.9 L400.3 243.2 L403.4 242.5 L406.4 242.7 L409.0 243.6 L411.0 245.0" stroke="#46304c"/>
<path d="M500.0 299.9 L490.3 296.9 L482.0 291.7 L475.3 284.7 L470.7 276.5 L468.3 267.5 L468.3 258.5 L470.5 250.0 L474.6 242.4 L480.4 236.3 L487.4 231.9 L495.0 229.5 L502.8 229.1 L510.2 230.6 L516.8 233.9 L522.2 238.6 L526.2 244.3 L528.5 250.7 L529.1 257.2 L528.1 263.4 L525.6 269.1 L522.0 273.7 L517.4 277.1 L512.2 279.2 L507.0 279.9 L501.9 279.2 L497.4 277.4 L493.6 274.5 L490.8 271.0 L489.1 267.1 L488.5 263.0 L489.0 259.1 L490.4 255.7 L492.5 252.9 L495.1 250.9 L497.9 249.8 L500.8 249.4 L503.4 249.8 L505.7 250.9 L507.4 252.4 L508.6 254.1" stroke="#52385a"/>
<path d="M548.1 261.6 L549.3 250.3 L553.3 240.0 L559.6 231.1 L567.7 224.3 L577.1 219.8 L587.0 217.9 L596.9 218.5 L606.1 221.5 L614.1 226.6 L620.4 233.3 L624.7 241.2 L626.7 249.7 L626.6 258.2 L624.4 266.2 L620.4 273.2 L614.9 278.8 L608.4 282.7 L601.3 284.8 L594.2 285.0 L587.5 283.4 L581.6 280.3 L576.8 276.0 L573.5 270.8 L571.6 265.1 L571.3 259.4 L572.3 253.9 L574.7 249.2 L578.0 245.4 L582.0 242.7 L586.3 241.2 L590.7 240.9 L594.8 241.7 L598.3 243.4 L601.0 245.8 L602.9 248.7 L603.9 251.8 L604.0 254.8 L603.3 257.5 L602.1 259.8 L600.4 261.4" stroke="#6a4468"/>
<path d="M696.1 305.1 L683.8 305.4 L672.0 302.7 L661.5 297.3 L652.9 289.5 L646.7 280.1 L643.1 269.6 L642.3 258.8 L644.1 248.4 L648.4 239.0 L654.8 231.2 L662.7 225.4 L671.5 221.9 L680.8 220.7 L689.7 221.9 L697.9 225.2 L704.7 230.3 L709.9 236.8 L713.2 244.1 L714.5 251.8 L713.8 259.3 L711.4 266.1 L707.4 271.9 L702.3 276.3 L696.4 279.2 L690.3 280.4 L684.3 280.0 L678.8 278.2 L674.2 275.2 L670.7 271.3 L668.4 266.8 L667.4 262.2 L667.6 257.7 L669.0 253.6 L671.2 250.3 L674.0 247.8 L677.2 246.3 L680.5 245.7 L683.5 246.0 L686.1 247.1 L688.1 248.7" stroke="#5c3d5f"/>
<path d="M741.4 262.3 L740.3 251.1 L742.5 240.3 L747.7 230.8 L755.3 223.4 L764.5 218.8 L774.4 217.0 L784.2 218.3 L793.0 222.3 L800.0 228.6 L804.7 236.5 L806.8 245.2 L806.3 253.9 L803.3 261.8 L798.2 268.3 L791.6 272.9 L784.2 275.2 L776.6 275.2 L769.6 273.1 L763.8 269.1 L759.5 263.7 L757.2 257.5 L756.7 251.1 L758.2 245.1 L761.3 240.0 L765.6 236.3 L770.6 234.0 L775.8 233.4 L780.7 234.4 L784.9 236.7 L788.1 239.9 L790.0 243.8 L790.6 247.9 L790.0 251.7 L788.3 254.9 L785.9 257.4 L783.1 258.8 L780.2 259.3 L777.5 258.8 L775.2 257.6 L773.7 256.0" stroke="#6a4468"/>
<path d="M854.5 303.0 L844.9 294.9 L837.8 284.8 L833.6 273.5 L832.3 261.7 L834.0 250.3 L838.4 239.9 L845.1 231.1 L853.6 224.5 L863.2 220.3 L873.3 218.7 L883.3 219.7 L892.4 223.0 L900.2 228.4 L906.2 235.4 L910.2 243.5 L911.9 252.0 L911.5 260.4 L909.0 268.2 L904.8 274.9 L899.2 280.2 L892.6 283.7 L885.7 285.4 L878.8 285.3 L872.4 283.5 L866.9 280.2 L862.5 275.9 L859.6 270.8 L858.2 265.3 L858.1 260.0 L859.5 255.0 L861.9 250.8 L865.1 247.5 L868.9 245.4 L872.9 244.3 L876.7 244.4 L880.2 245.4 L883.0 247.2 L885.1 249.5 L886.4 252.0 L886.8 254.6" stroke="#46304c"/>
<path d="M945.4 218.7 L957.6 214.6 L970.2 214.3 L982.1 217.7 L992.2 224.3 L999.7 233.4 L1004.1 244.0 L1005.1 255.3 L1002.9 266.0 L997.6 275.4 L990.1 282.6 L980.9 287.2 L971.1 288.7 L961.5 287.4 L953.0 283.4 L946.3 277.2 L941.8 269.5 L939.9 261.1 L940.5 252.8 L943.5 245.2 L948.4 239.2 L954.7 235.0 L961.7 232.9 L968.8 233.0 L975.2 235.2 L980.5 239.0 L984.2 244.0 L986.2 249.7 L986.4 255.4 L984.9 260.6 L982.0 265.0 L978.2 268.1 L973.9 269.8 L969.5 270.1 L965.4 269.0 L962.1 267.0 L959.8 264.2 L958.6 261.0 L958.4 257.9 L959.1 255.1 L960.6 253.0" stroke="#2f2236"/>
<path d="M1105.3 262.4 L1102.9 272.9 L1098.0 282.2 L1091.1 289.9 L1082.7 295.5 L1073.4 298.7 L1063.8 299.5 L1054.5 297.8 L1046.1 294.0 L1039.1 288.3 L1033.9 281.3 L1030.7 273.3 L1029.7 265.1 L1030.7 257.0 L1033.6 249.7 L1038.2 243.5 L1044.0 238.9 L1050.5 235.9 L1057.4 234.7 L1064.2 235.3 L1070.4 237.5 L1075.6 241.0 L1079.7 245.6 L1082.3 250.9 L1083.4 256.5 L1083.1 262.0 L1081.5 267.0 L1078.8 271.2 L1075.3 274.4 L1071.2 276.6 L1066.9 277.5 L1062.8 277.3 L1059.0 276.1 L1055.9 274.1 L1053.5 271.5 L1052.1 268.6 L1051.5 265.6 L1051.7 262.7 L1052.6 260.2 L1054.1 258.2 L1055.9 256.9" stroke="#52385a"/>
<path d="M1192.8 243.7 L1192.7 260.5 L1187.1 275.9 L1176.8 288.1 L1163.2 296.0 L1148.1 298.7 L1133.3 296.2 L1120.5 289.0 L1111.2 278.1 L1106.3 265.1 L1106.1 251.4 L1110.4 238.9 L1118.6 228.8 L1129.4 222.3 L1141.4 220.0 L1153.2 221.8 L1163.3 227.4 L1170.7 235.8 L1174.6 245.9 L1174.9 256.5 L1171.6 266.1 L1165.5 273.8 L1157.4 278.7 L1148.4 280.5 L1139.7 279.2 L1132.3 275.1 L1127.0 269.0 L1124.2 261.7 L1124.1 254.3 L1126.4 247.6 L1130.7 242.4 L1136.2 239.2 L1142.2 238.1 L1147.8 239.2 L1152.4 241.9 L1155.6 245.9 L1157.0 250.4 L1156.8 254.7 L1155.2 258.4 L1152.6 261.0 L1149.5 262.4" stroke="#46304c"/>
<path d="M1275.9 280.7 L1267.4 289.5 L1256.9 295.3 L1245.4 297.6 L1234.0 296.5 L1223.6 292.1 L1215.2 285.1 L1209.4 276.1 L1206.6 266.0 L1206.9 255.8 L1210.1 246.3 L1215.8 238.5 L1223.4 232.8 L1232.1 229.8 L1241.1 229.4 L1249.5 231.7 L1256.6 236.2 L1261.9 242.5 L1265.1 249.8 L1265.8 257.4 L1264.3 264.7 L1260.9 271.0 L1255.9 275.8 L1249.9 278.8 L1243.5 279.8 L1237.4 279.0 L1232.0 276.4 L1227.9 272.5 L1225.2 267.7 L1224.1 262.6 L1224.6 257.7 L1226.5 253.4 L1229.4 250.0 L1233.0 247.9 L1236.9 247.0 L1240.6 247.3 L1243.8 248.6 L1246.2 250.7 L1247.7 253.3 L1248.3 255.9 L1248.0 258.4" stroke="#6a4468"/>
<path d="M-22.3 374.1 L-32.0 366.4 L-39.3 356.8 L-43.9 345.9 L-45.5 334.5 L-44.3 323.2 L-40.4 312.9 L-34.1 304.1 L-26.1 297.2 L-16.8 292.8 L-6.9 290.8 L2.8 291.4 L11.9 294.4 L19.8 299.4 L25.9 306.0 L30.1 313.7 L32.1 322.0 L31.9 330.3 L29.8 338.0 L25.9 344.8 L20.6 350.1 L14.3 353.8 L7.6 355.7 L0.8 355.8 L-5.5 354.3 L-11.0 351.3 L-15.4 347.2 L-18.5 342.3 L-20.1 337.1 L-20.3 331.8 L-19.2 326.9 L-17.0 322.7 L-13.9 319.4 L-10.3 317.1 L-6.4 316.0 L-2.7 315.9 L0.8 316.7 L3.6 318.4 L5.7 320.5 L7.1 323.0 L7.6 325.5" stroke="#6a4468"/>
<path d="M101.1 283.0 L114.9 287.8 L126.0 296.8 L133.3 308.7 L135.9 322.2 L133.9 335.4 L127.7 346.9 L118.1 355.4 L106.5 360.0 L94.3 360.4 L83.0 356.7 L73.9 349.6 L67.9 340.0 L65.6 329.2 L67.0 318.7 L71.9 309.5 L79.3 302.7 L88.4 299.0 L97.8 298.6 L106.6 301.3 L113.6 306.7 L118.2 314.0 L120.0 322.1 L119.0 330.0 L115.4 336.8 L109.9 341.8 L103.4 344.4 L96.6 344.7 L90.4 342.7 L85.6 338.9 L82.5 333.8 L81.4 328.4 L82.2 323.1 L84.7 318.8 L88.3 315.8 L92.4 314.3 L96.5 314.3 L100.0 315.8 L102.6 318.1 L104.1 321.0 L104.3 323.9" stroke="#3a2740"/>
<path d="M180.4 378.7 L168.9 375.8 L158.6 370.1 L150.3 362.2 L144.3 352.7 L141.0 342.3 L140.4 331.6 L142.5 321.3 L147.0 312.1 L153.5 304.5 L161.4 299.0 L170.3 295.6 L179.5 294.7 L188.4 296.1 L196.5 299.5 L203.2 304.7 L208.2 311.3 L211.4 318.7 L212.5 326.4 L211.6 333.9 L209.0 340.7 L204.9 346.4 L199.7 350.7 L193.8 353.5 L187.5 354.6 L181.5 354.1 L176.0 352.2 L171.4 349.1 L167.9 345.1 L165.6 340.5 L164.7 335.7 L165.0 331.1 L166.4 327.0 L168.8 323.6 L171.7 321.0 L175.0 319.5 L178.4 318.9 L181.6 319.2 L184.3 320.3 L186.4 322.0 L187.9 324.0" stroke="#6a4468"/>
<path d="M311.4 321.3 L312.1 333.7 L309.1 345.5 L302.8 355.7 L294.1 363.4 L283.6 368.1 L272.6 369.4 L261.8 367.5 L252.4 362.6 L245.0 355.3 L240.2 346.3 L238.3 336.6 L239.4 327.1 L243.2 318.5 L249.1 311.6 L256.6 306.9 L265.0 304.7 L273.3 305.1 L280.9 307.9 L287.1 312.6 L291.5 318.8 L293.8 325.7 L293.9 332.8 L292.0 339.3 L288.3 344.8 L283.4 348.7 L277.8 350.9 L272.0 351.3 L266.6 350.0 L262.1 347.2 L258.8 343.4 L256.9 339.0 L256.4 334.5 L257.3 330.4 L259.3 326.9 L262.1 324.3 L265.3 322.9 L268.5 322.5 L271.5 323.2 L273.9 324.6 L275.5 326.5" stroke="#5c3d5f"/>
<path d="M348.9 378.6 L337.0 371.9 L327.8 362.1 L322.0 350.3 L320.0 337.6 L321.8 325.1 L327.1 314.0 L335.2 305.2 L345.4 299.3 L356.5 296.7 L367.7 297.5 L377.8 301.5 L386.1 308.2 L391.9 316.7 L394.8 326.4 L394.7 336.1 L391.8 345.2 L386.5 352.7 L379.4 358.1 L371.3 361.1 L363.0 361.6 L355.2 359.6 L348.5 355.5 L343.6 349.9 L340.7 343.2 L340.0 336.3 L341.3 329.8 L344.3 324.2 L348.7 320.0 L353.9 317.4 L359.4 316.5 L364.6 317.3 L369.1 319.6 L372.5 322.9 L374.5 326.8 L375.2 330.9 L374.7 334.7 L373.1 337.9 L370.8 340.3 L368.0 341.7 L365.2 342.1" stroke="#6a4468"/>
<path d="M508.3 343.1 L504.3 353.8 L497.9 362.9 L489.6 370.0 L479.9 374.7 L469.7 376.7 L459.5 376.2 L450.0 373.1 L441.7 367.9 L435.2 361.0 L430.7 352.9 L428.5 344.1 L428.6 335.3 L430.8 327.0 L434.9 319.7 L440.6 313.9 L447.3 309.8 L454.6 307.6 L462.0 307.3 L469.0 308.9 L475.2 312.1 L480.2 316.6 L483.8 322.0 L485.8 327.9 L486.2 333.9 L485.1 339.6 L482.7 344.6 L479.3 348.6 L475.1 351.5 L470.5 353.2 L465.9 353.6 L461.6 352.8 L457.8 351.0 L454.8 348.5 L452.7 345.4 L451.6 342.1 L451.4 338.9 L452.0 335.9 L453.3 333.4 L455.1 331.6 L457.2 330.4" stroke="#46304c"/>
<path d="M558.0 291.6 L569.4 297.3 L578.5 306.1 L584.5 316.8 L586.9 328.6 L585.8 340.4 L581.4 351.0 L574.2 359.6 L564.9 365.6 L554.6 368.5 L544.2 368.3 L534.5 365.0 L526.5 359.2 L520.7 351.4 L517.5 342.6 L517.1 333.4 L519.4 324.8 L524.0 317.6 L530.4 312.1 L537.8 309.0 L545.6 308.2 L553.0 309.6 L559.4 313.2 L564.3 318.2 L567.3 324.3 L568.3 330.7 L567.4 336.9 L564.8 342.3 L560.9 346.4 L556.1 349.1 L551.0 350.1 L546.1 349.6 L541.8 347.7 L538.5 344.8 L536.4 341.2 L535.5 337.4 L535.9 333.8 L537.2 330.7 L539.3 328.4 L541.8 327.0 L544.4 326.5" stroke="#2f2236"/>
<path d="M661.9 285.2 L671.3 290.8 L678.9 298.4 L684.2 307.4 L687.0 317.3 L687.2 327.3 L685.0 336.9 L680.5 345.4 L674.2 352.3 L666.6 357.3 L658.1 360.2 L649.5 360.8 L641.1 359.3 L633.7 355.8 L627.5 350.7 L622.9 344.3 L620.2 337.3 L619.3 330.0 L620.3 322.9 L623.0 316.6 L627.0 311.3 L632.1 307.3 L637.8 304.8 L643.7 303.9 L649.5 304.5 L654.7 306.5 L659.0 309.6 L662.3 313.6 L664.3 318.0 L665.1 322.6 L664.7 327.0 L663.2 331.0 L660.9 334.3 L658.0 336.7 L654.8 338.1 L651.5 338.7 L648.3 338.3 L645.6 337.2 L643.5 335.5 L642.1 333.5 L641.3 331.4" stroke="#6a4468"/>
<path d="M715.2 368.3 L707.6 362.0 L702.0 354.2 L698.6 345.5 L697.6 336.3 L698.8 327.4 L702.2 319.3 L707.3 312.4 L713.9 307.2 L721.4 303.8 L729.3 302.5 L737.0 303.2 L744.2 305.7 L750.3 309.9 L755.0 315.3 L758.2 321.5 L759.6 328.2 L759.3 334.7 L757.4 340.8 L754.1 346.1 L749.8 350.2 L744.7 353.0 L739.3 354.4 L733.9 354.3 L729.0 353.0 L724.6 350.5 L721.2 347.1 L718.9 343.2 L717.8 338.9 L717.7 334.7 L718.7 330.9 L720.6 327.6 L723.1 325.0 L726.0 323.3 L729.1 322.5 L732.1 322.5 L734.8 323.2 L737.0 324.6 L738.7 326.4 L739.7 328.4 L740.0 330.4" stroke="#52385a"/>
<path d="M842.3 377.4 L826.9 378.9 L812.3 375.2 L800.0 367.0 L791.5 355.3 L787.5 341.7 L788.4 327.9 L793.8 315.5 L802.9 305.9 L814.4 300.1 L826.9 298.6 L838.8 301.4 L848.8 307.9 L855.8 317.2 L859.1 328.0 L858.6 339.0 L854.4 348.8 L847.4 356.4 L838.5 361.0 L828.9 362.2 L819.7 360.1 L812.1 355.2 L806.8 348.3 L804.3 340.2 L804.7 332.1 L807.7 324.9 L812.8 319.5 L819.2 316.2 L826.0 315.4 L832.3 316.9 L837.5 320.3 L841.0 325.1 L842.5 330.5 L842.1 335.7 L840.0 340.2 L836.7 343.5 L832.8 345.2 L828.7 345.5 L825.2 344.3 L822.6 342.2 L821.0 339.5" stroke="#46304c"/>
<path d="M880.6 315.6 L886.9 304.3 L896.4 296.0 L908.0 291.6 L920.1 291.4 L931.3 295.2 L940.3 302.4 L946.2 312.1 L948.5 322.9 L946.9 333.5 L941.9 342.8 L934.3 349.6 L925.0 353.3 L915.3 353.7 L906.4 350.8 L899.1 345.2 L894.4 337.6 L892.5 329.2 L893.6 320.9 L897.4 313.7 L903.2 308.4 L910.2 305.5 L917.5 305.2 L924.3 307.3 L929.6 311.5 L933.1 317.0 L934.4 323.1 L933.6 329.1 L930.9 334.1 L926.8 337.8 L922.0 339.7 L917.0 339.8 L912.6 338.2 L909.2 335.4 L907.1 331.9 L906.5 328.0 L907.2 324.5 L908.9 321.6 L911.4 319.7 L914.1 318.9 L916.7 319.2" stroke="#46304c"/>
<path d="M981.9 300.3 L994.4 292.2 L1008.5 288.3 L1022.7 288.7 L1036.0 293.2 L1047.0 301.2 L1055.0 311.9 L1059.4 324.2 L1059.9 336.9 L1056.7 349.0 L1050.3 359.2 L1041.4 366.9 L1030.8 371.5 L1019.7 372.7 L1009.0 370.7 L999.6 365.7 L992.4 358.3 L987.9 349.5 L986.2 339.9 L987.4 330.6 L991.2 322.4 L997.0 315.9 L1004.3 311.6 L1012.2 309.7 L1020.1 310.3 L1027.1 313.0 L1032.7 317.6 L1036.5 323.4 L1038.4 329.7 L1038.2 336.0 L1036.3 341.7 L1032.9 346.3 L1028.5 349.5 L1023.6 351.0 L1018.8 351.1 L1014.5 349.7 L1011.1 347.2 L1008.8 344.0 L1007.7 340.6 L1007.8 337.3 L1008.8 334.4" stroke="#46304c"/>
<path d="M1120.9 372.6 L1107.6 376.2 L1094.1 375.7 L1081.6 371.4 L1071.2 363.7 L1063.6 353.5 L1059.6 341.9 L1059.1 329.8 L1062.2 318.4 L1068.4 308.6 L1076.9 301.4 L1087.0 297.1 L1097.6 296.0 L1107.8 298.0 L1116.7 302.8 L1123.5 309.9 L1127.9 318.4 L1129.4 327.5 L1128.2 336.4 L1124.5 344.2 L1118.9 350.5 L1111.9 354.6 L1104.3 356.3 L1096.7 355.8 L1090.0 353.1 L1084.6 348.7 L1080.9 343.1 L1079.1 336.9 L1079.2 330.8 L1081.1 325.3 L1084.5 320.8 L1088.8 317.7 L1093.5 316.1 L1098.3 316.1 L1102.5 317.4 L1105.9 319.8 L1108.3 323.0 L1109.4 326.4 L1109.4 329.8 L1108.4 332.7 L1106.7 334.9" stroke="#46304c"/>
<path d="M1150.0 321.6 L1157.2 307.6 L1168.5 297.0 L1182.4 291.1 L1197.2 290.2 L1211.1 294.3 L1222.5 302.7 L1230.1 314.3 L1233.3 327.4 L1231.9 340.5 L1226.3 352.0 L1217.3 360.7 L1206.1 365.7 L1194.3 366.6 L1183.2 363.5 L1174.1 356.9 L1167.9 347.9 L1165.3 337.7 L1166.2 327.5 L1170.5 318.5 L1177.4 311.8 L1185.8 307.9 L1194.7 307.2 L1203.0 309.5 L1209.8 314.4 L1214.3 320.9 L1216.2 328.4 L1215.5 335.7 L1212.4 342.0 L1207.6 346.6 L1201.7 349.1 L1195.7 349.5 L1190.2 347.8 L1185.9 344.6 L1183.2 340.3 L1182.3 335.6 L1183.0 331.3 L1185.0 327.7 L1187.9 325.3 L1191.2 324.2 L1194.4 324.3" stroke="#6a4468"/>
<path d="M1253.4 317.8 L1260.6 308.0 L1270.2 300.9 L1281.3 297.1 L1292.7 296.7 L1303.5 299.6 L1312.7 305.5 L1319.6 313.6 L1323.7 323.2 L1324.8 333.3 L1322.8 343.0 L1318.2 351.5 L1311.5 358.1 L1303.3 362.3 L1294.5 363.8 L1285.9 362.7 L1278.3 359.1 L1272.2 353.7 L1268.2 346.9 L1266.4 339.4 L1266.9 332.0 L1269.5 325.3 L1273.8 319.9 L1279.3 316.2 L1285.5 314.4 L1291.6 314.4 L1297.3 316.3 L1301.9 319.6 L1305.1 323.9 L1306.8 328.8 L1307.0 333.7 L1305.7 338.2 L1303.3 341.9 L1300.0 344.5 L1296.3 345.9 L1292.6 346.1 L1289.3 345.2 L1286.6 343.5 L1284.8 341.1 L1283.9 338.6 L1283.8 336.1" stroke="#52385a"/>
<path d="M-47.7 446.9 L-58.2 445.0 L-67.8 440.7 L-75.8 434.1 L-81.8 426.0 L-85.4 416.8 L-86.7 407.3 L-85.5 397.9 L-82.1 389.4 L-76.8 382.1 L-70.0 376.6 L-62.2 373.0 L-54.0 371.6 L-45.9 372.2 L-38.5 374.8 L-32.1 379.0 L-27.1 384.6 L-23.9 391.0 L-22.3 397.9 L-22.6 404.6 L-24.5 410.9 L-27.8 416.3 L-32.2 420.6 L-37.4 423.4 L-42.9 424.8 L-48.3 424.8 L-53.4 423.4 L-57.7 420.9 L-61.1 417.6 L-63.5 413.6 L-64.6 409.4 L-64.6 405.2 L-63.6 401.4 L-61.8 398.2 L-59.3 395.7 L-56.4 394.1 L-53.4 393.4 L-50.6 393.5 L-48.0 394.3 L-46.0 395.6 L-44.6 397.3" stroke="#46304c"/>
<path d="M11.7 435.8 L7.4 426.9 L5.6 417.3 L6.1 407.8 L9.0 398.9 L13.9 391.2 L20.4 385.2 L28.0 381.0 L36.3 379.0 L44.6 379.0 L52.4 381.1 L59.2 385.0 L64.8 390.4 L68.6 396.8 L70.7 403.7 L71.0 410.8 L69.5 417.5 L66.5 423.5 L62.2 428.3 L57.0 431.7 L51.2 433.7 L45.4 434.2 L39.8 433.1 L34.9 430.8 L30.9 427.5 L27.9 423.4 L26.2 418.8 L25.8 414.2 L26.5 409.8 L28.2 406.0 L30.7 402.8 L33.8 400.6 L37.2 399.3 L40.6 398.9 L43.8 399.5 L46.6 400.7 L48.7 402.6 L50.2 404.8 L51.0 407.1 L51.1 409.3 L50.6 411.3" stroke="#46304c"/>
<path d="M91.3 414.3 L91.3 397.9 L96.8 382.8 L106.9 370.8 L120.2 363.1 L135.0 360.4 L149.5 362.8 L162.0 369.9 L171.1 380.6 L176.0 393.4 L176.2 406.7 L171.9 419.0 L163.9 428.8 L153.4 435.2 L141.6 437.5 L130.1 435.7 L120.2 430.3 L112.9 422.0 L109.0 412.1 L108.8 401.8 L112.0 392.4 L118.0 384.8 L125.9 380.0 L134.7 378.2 L143.2 379.5 L150.5 383.5 L155.7 389.5 L158.4 396.6 L158.6 403.9 L156.3 410.4 L152.1 415.5 L146.7 418.7 L140.8 419.7 L135.3 418.7 L130.8 416.0 L127.7 412.2 L126.3 407.8 L126.5 403.5 L128.1 399.9 L130.6 397.3 L133.6 396.0" stroke="#3a2740"/>
<path d="M266.6 381.5 L271.1 395.0 L271.4 408.9 L267.7 422.0 L260.4 433.2 L250.4 441.6 L238.6 446.5 L226.2 447.6 L214.2 445.1 L203.9 439.3 L195.9 431.0 L190.8 420.9 L189.1 410.0 L190.6 399.4 L195.0 390.0 L201.8 382.5 L210.3 377.6 L219.6 375.4 L228.8 376.1 L237.2 379.4 L243.9 384.9 L248.5 391.8 L250.8 399.6 L250.7 407.4 L248.3 414.5 L244.1 420.3 L238.6 424.5 L232.3 426.7 L226.0 426.9 L220.2 425.2 L215.4 422.1 L211.9 417.8 L210.1 413.0 L209.7 408.2 L210.9 403.7 L213.1 400.0 L216.2 397.5 L219.7 396.1 L223.2 395.9 L226.2 396.7 L228.6 398.3" stroke="#3a2740"/>
<path d="M364.0 396.9 L363.3 409.8 L358.2 421.5 L349.7 430.6 L338.9 436.1 L327.1 437.6 L315.7 435.0 L306.1 428.9 L299.4 420.1 L296.1 409.7 L296.6 399.2 L300.5 389.6 L307.2 382.2 L315.8 377.6 L325.2 376.3 L334.3 378.2 L341.9 383.0 L347.2 389.8 L349.9 397.8 L349.6 406.0 L346.7 413.3 L341.6 419.0 L335.1 422.5 L328.1 423.5 L321.4 422.1 L315.9 418.6 L312.0 413.7 L310.1 407.9 L310.4 402.2 L312.5 397.1 L316.0 393.2 L320.4 391.0 L325.1 390.4 L329.4 391.5 L332.9 393.8 L335.1 397.0 L336.1 400.5 L335.7 403.9 L334.3 406.7 L332.2 408.6 L329.7 409.5" stroke="#5c3d5f"/>
<path d="M368.4 415.5 L367.2 404.6 L368.7 393.9 L372.7 384.2 L378.9 375.9 L386.8 369.6 L395.8 365.6 L405.3 364.0 L414.7 364.9 L423.4 368.0 L430.8 373.0 L436.5 379.6 L440.4 387.2 L442.1 395.2 L441.8 403.3 L439.5 410.8 L435.5 417.3 L430.2 422.4 L423.9 425.9 L417.2 427.6 L410.5 427.6 L404.2 425.9 L398.8 422.9 L394.5 418.7 L391.5 413.7 L389.9 408.3 L389.8 403.0 L390.9 398.0 L393.2 393.6 L396.5 390.2 L400.2 387.9 L404.3 386.6 L408.3 386.5 L412.0 387.4 L415.2 389.1 L417.6 391.4 L419.2 394.1 L419.9 396.9 L419.9 399.6 L419.2 402.0 L417.9 403.9" stroke="#52385a"/>
<path d="M478.4 387.4 L487.9 378.8 L499.5 374.0 L511.7 373.5 L523.1 377.1 L532.5 384.2 L538.7 393.8 L541.2 404.8 L539.8 415.6 L535.0 425.1 L527.4 432.3 L518.1 436.3 L508.3 436.9 L499.0 434.1 L491.5 428.6 L486.5 421.0 L484.4 412.4 L485.3 403.9 L489.0 396.5 L494.8 390.9 L501.9 387.8 L509.4 387.3 L516.4 389.3 L522.0 393.4 L525.7 399.0 L527.3 405.3 L526.6 411.4 L523.9 416.8 L519.8 420.7 L514.8 422.8 L509.7 423.0 L505.0 421.6 L501.3 418.8 L499.0 415.1 L498.2 411.0 L498.8 407.2 L500.6 404.1 L503.1 402.0 L506.1 401.0 L508.9 401.1 L511.2 402.1" stroke="#5c3d5f"/>
<path d="M608.2 441.2 L597.8 442.1 L587.7 440.4 L578.6 436.2 L571.0 430.1 L565.3 422.4 L561.7 413.8 L560.5 404.7 L561.6 395.9 L564.8 387.7 L569.7 380.9 L576.1 375.6 L583.4 372.2 L591.2 370.8 L598.8 371.3 L605.8 373.7 L611.9 377.7 L616.5 382.9 L619.7 388.9 L621.1 395.3 L620.9 401.7 L619.2 407.6 L616.1 412.7 L612.0 416.6 L607.2 419.3 L602.0 420.7 L596.9 420.6 L592.2 419.4 L588.2 417.0 L585.1 413.9 L582.9 410.2 L581.9 406.4 L581.9 402.5 L582.8 399.1 L584.5 396.1 L586.8 393.9 L589.4 392.5 L592.1 391.8 L594.7 392.0 L596.9 392.7 L598.7 394.0" stroke="#52385a"/>
<path d="M705.1 364.5 L715.0 371.8 L722.6 381.2 L727.4 391.9 L729.5 403.3 L728.6 414.6 L724.9 425.0 L719.0 434.0 L711.1 441.0 L702.0 445.8 L692.2 448.0 L682.4 447.7 L673.3 445.0 L665.3 440.3 L659.0 433.8 L654.6 426.2 L652.3 418.0 L652.2 409.7 L654.2 402.0 L657.9 395.1 L663.0 389.7 L669.1 385.8 L675.8 383.7 L682.6 383.4 L688.9 384.7 L694.5 387.5 L699.0 391.5 L702.2 396.3 L704.0 401.5 L704.3 406.7 L703.4 411.6 L701.3 415.9 L698.3 419.3 L694.8 421.7 L691.0 422.9 L687.2 423.1 L683.8 422.4 L680.9 420.8 L678.7 418.7 L677.3 416.3 L676.7 413.8" stroke="#2f2236"/>
<path d="M824.9 411.0 L820.8 420.5 L814.6 428.5 L806.8 434.6 L797.8 438.4 L788.5 439.9 L779.2 438.9 L770.7 435.8 L763.5 430.8 L757.9 424.2 L754.1 416.6 L752.5 408.6 L752.9 400.6 L755.3 393.2 L759.3 386.8 L764.6 381.7 L770.9 378.3 L777.7 376.6 L784.4 376.7 L790.7 378.4 L796.1 381.5 L800.5 385.8 L803.5 390.8 L805.1 396.3 L805.2 401.7 L804.0 406.8 L801.6 411.3 L798.3 414.8 L794.4 417.3 L790.2 418.6 L786.0 418.7 L782.1 417.9 L778.8 416.1 L776.1 413.7 L774.4 410.8 L773.5 407.8 L773.4 404.8 L774.1 402.1 L775.4 399.9 L777.2 398.3 L779.1 397.4" stroke="#2f2236"/>
<path d="M854.6 368.2 L865.4 364.6 L876.6 364.3 L887.1 367.3 L896.1 373.1 L902.9 381.2 L906.8 390.6 L907.7 400.6 L905.7 410.2 L901.1 418.5 L894.4 425.0 L886.3 429.0 L877.6 430.5 L869.0 429.3 L861.5 425.7 L855.5 420.2 L851.5 413.4 L849.8 405.9 L850.3 398.5 L852.9 391.8 L857.3 386.4 L862.9 382.7 L869.1 380.8 L875.4 380.9 L881.1 382.8 L885.8 386.2 L889.1 390.6 L890.9 395.7 L891.1 400.7 L889.8 405.4 L887.2 409.3 L883.8 412.1 L880.0 413.6 L876.1 413.8 L872.5 412.9 L869.5 411.1 L867.5 408.6 L866.3 405.8 L866.2 403.1 L866.8 400.6 L868.2 398.7" stroke="#46304c"/>
<path d="M962.5 440.9 L949.9 436.1 L939.8 427.5 L933.5 416.3 L931.4 403.8 L933.6 391.6 L939.7 381.2 L948.8 373.6 L959.7 369.6 L970.9 369.6 L981.2 373.4 L989.5 380.2 L994.7 389.2 L996.6 399.2 L994.9 408.9 L990.2 417.3 L983.2 423.3 L974.7 426.5 L965.9 426.6 L957.9 423.8 L951.6 418.6 L947.5 411.8 L946.1 404.3 L947.3 397.0 L950.8 390.9 L955.9 386.4 L962.1 384.1 L968.3 384.1 L974.0 386.1 L978.4 389.8 L981.1 394.5 L981.9 399.6 L981.0 404.4 L978.6 408.3 L975.3 411.0 L971.4 412.3 L967.6 412.1 L964.4 410.7 L962.1 408.4 L960.8 405.7 L960.7 403.0" stroke="#52385a"/>
<path d="M1025.2 390.3 L1033.0 379.9 L1043.7 373.0 L1055.8 370.2 L1067.9 371.6 L1078.5 376.9 L1086.6 385.4 L1091.1 395.8 L1091.8 406.9 L1088.8 417.3 L1082.6 425.8 L1074.0 431.6 L1064.3 434.0 L1054.6 433.0 L1046.0 428.9 L1039.6 422.3 L1035.9 414.1 L1035.2 405.5 L1037.5 397.3 L1042.2 390.7 L1048.7 386.2 L1056.1 384.3 L1063.4 385.0 L1069.8 388.1 L1074.6 393.0 L1077.3 399.0 L1077.8 405.2 L1076.1 411.0 L1072.8 415.7 L1068.2 418.8 L1063.1 420.0 L1058.2 419.4 L1054.0 417.3 L1051.0 414.0 L1049.4 410.2 L1049.3 406.2 L1050.5 402.8 L1052.6 400.2 L1055.3 398.7 L1058.2 398.2 L1060.7 398.8" stroke="#52385a"/>
<path d="M1119.6 363.5 L1132.3 357.4 L1145.9 355.4 L1159.1 357.4 L1171.0 363.2 L1180.4 372.0 L1186.6 382.9 L1189.2 394.9 L1188.2 406.9 L1183.9 417.7 L1176.6 426.6 L1167.4 432.7 L1157.0 435.8 L1146.4 435.6 L1136.7 432.4 L1128.5 426.6 L1122.7 418.9 L1119.4 410.1 L1119.0 401.0 L1121.2 392.5 L1125.7 385.2 L1131.9 379.8 L1139.2 376.7 L1146.9 375.8 L1154.1 377.3 L1160.3 380.7 L1165.1 385.6 L1168.0 391.4 L1168.9 397.6 L1168.1 403.5 L1165.6 408.6 L1161.8 412.4 L1157.4 414.9 L1152.6 415.8 L1148.1 415.2 L1144.3 413.4 L1141.4 410.7 L1139.6 407.5 L1139.0 404.2 L1139.4 401.1 L1140.7 398.5" stroke="#2f2236"/>
<path d="M1211.5 420.4 L1209.0 411.4 L1208.8 402.3 L1210.9 393.6 L1215.0 385.8 L1220.7 379.5 L1227.7 374.9 L1235.5 372.3 L1243.5 371.8 L1251.1 373.2 L1258.0 376.4 L1263.7 381.1 L1268.0 387.0 L1270.5 393.5 L1271.3 400.3 L1270.4 406.9 L1267.9 412.9 L1264.2 417.9 L1259.4 421.6 L1254.0 424.0 L1248.4 424.9 L1242.9 424.4 L1237.9 422.5 L1233.8 419.6 L1230.6 415.8 L1228.5 411.5 L1227.7 407.1 L1228.0 402.7 L1229.4 398.8 L1231.6 395.5 L1234.4 393.0 L1237.7 391.4 L1241.0 390.7 L1244.2 391.0 L1247.1 392.0 L1249.5 393.6 L1251.2 395.7 L1252.2 397.9 L1252.5 400.2 L1252.2 402.3 L1251.4 404.1" stroke="#3a2740"/>
<path d="M28.7 518.4 L19.4 524.0 L9.3 527.1 L-1.1 527.5 L-11.0 525.3 L-19.9 520.9 L-27.2 514.5 L-32.6 506.6 L-35.7 497.9 L-36.5 488.9 L-35.1 480.2 L-31.6 472.4 L-26.4 465.8 L-19.9 460.9 L-12.6 457.9 L-4.9 456.8 L2.5 457.7 L9.3 460.3 L15.0 464.5 L19.3 469.7 L22.1 475.7 L23.2 482.0 L22.7 488.2 L20.7 493.8 L17.5 498.5 L13.4 502.1 L8.7 504.5 L3.7 505.5 L-1.1 505.2 L-5.5 503.8 L-9.2 501.3 L-12.0 498.2 L-13.8 494.7 L-14.5 491.0 L-14.3 487.5 L-13.2 484.4 L-11.4 481.8 L-9.2 480.0 L-6.8 478.9 L-4.3 478.6 L-2.1 478.9" stroke="#3a2740"/>
<path d="M48.3 462.0 L55.8 452.3 L65.4 445.0 L76.2 440.4 L87.7 438.7 L98.9 439.9 L109.2 443.7 L118.0 449.9 L124.9 458.0 L129.3 467.2 L131.3 477.0 L130.8 486.8 L127.9 495.9 L122.9 503.7 L116.3 509.8 L108.6 514.0 L100.4 516.1 L92.1 516.0 L84.4 513.8 L77.7 510.0 L72.3 504.7 L68.6 498.5 L66.7 491.7 L66.5 485.0 L68.0 478.7 L71.0 473.2 L75.1 468.8 L79.9 465.7 L85.2 464.1 L90.4 463.9 L95.3 464.9 L99.5 467.1 L102.8 470.2 L105.1 473.8 L106.3 477.6 L106.4 481.4 L105.5 484.8 L103.9 487.6 L101.7 489.8 L99.3 491.1 L96.8 491.6" stroke="#52385a"/>
<path d="M145.2 472.6 L148.7 462.8 L154.4 454.3 L161.9 447.6 L170.6 443.2 L180.0 441.1 L189.4 441.4 L198.2 444.0 L205.8 448.6 L211.9 454.8 L216.2 462.2 L218.4 470.2 L218.5 478.3 L216.6 486.0 L213.0 492.7 L207.9 498.2 L201.8 502.1 L195.2 504.2 L188.4 504.6 L181.9 503.3 L176.2 500.5 L171.5 496.5 L168.1 491.6 L166.2 486.2 L165.7 480.7 L166.6 475.5 L168.7 470.8 L171.7 467.0 L175.5 464.3 L179.7 462.7 L183.9 462.2 L187.9 462.9 L191.4 464.4 L194.2 466.7 L196.2 469.5 L197.3 472.5 L197.5 475.5 L197.0 478.2 L195.8 480.5 L194.2 482.2 L192.3 483.3" stroke="#3a2740"/>
<path d="M256.0 527.5 L245.7 521.4 L237.4 513.2 L231.6 503.3 L228.5 492.5 L228.2 481.6 L230.6 471.1 L235.4 461.8 L242.3 454.2 L250.6 448.7 L259.8 445.5 L269.3 444.8 L278.4 446.5 L286.6 450.2 L293.4 455.8 L298.4 462.7 L301.4 470.4 L302.4 478.3 L301.3 486.0 L298.5 493.0 L294.1 498.8 L288.5 503.2 L282.3 505.9 L275.8 506.9 L269.6 506.3 L263.9 504.2 L259.1 500.8 L255.5 496.5 L253.3 491.7 L252.4 486.6 L252.8 481.8 L254.4 477.5 L256.9 473.9 L260.1 471.2 L263.6 469.6 L267.2 469.0 L270.6 469.4 L273.6 470.6 L275.9 472.4 L277.5 474.6 L278.3 476.9" stroke="#3a2740"/>
<path d="M344.7 506.6 L338.8 495.0 L337.2 482.4 L339.9 470.2 L346.4 460.0 L355.9 452.7 L367.0 449.1 L378.3 449.6 L388.6 453.7 L396.7 461.0 L401.7 470.3 L403.2 480.5 L401.2 490.4 L396.0 498.7 L388.6 504.6 L379.8 507.5 L370.9 507.3 L362.8 504.2 L356.4 498.6 L352.5 491.4 L351.3 483.6 L352.8 476.1 L356.6 469.8 L362.1 465.4 L368.6 463.2 L375.2 463.4 L381.0 465.7 L385.6 469.7 L388.3 474.7 L389.1 480.2 L388.0 485.3 L385.3 489.5 L381.6 492.4 L377.3 493.7 L373.1 493.4 L369.6 491.8 L367.0 489.2 L365.6 486.2 L365.4 483.0 L366.2 480.3 L367.9 478.3" stroke="#6a4468"/>
<path d="M432.8 458.8 L440.9 453.2 L449.9 449.9 L459.3 449.0 L468.4 450.4 L476.7 454.0 L483.7 459.4 L488.9 466.2 L492.2 474.0 L493.4 482.1 L492.6 490.1 L489.8 497.4 L485.5 503.6 L479.8 508.4 L473.3 511.5 L466.4 512.9 L459.7 512.5 L453.4 510.4 L448.0 507.0 L443.8 502.4 L441.0 497.1 L439.6 491.5 L439.8 485.9 L441.2 480.7 L443.9 476.2 L447.5 472.7 L451.6 470.3 L456.1 469.2 L460.5 469.2 L464.5 470.2 L468.0 472.2 L470.7 474.9 L472.5 478.0 L473.4 481.3 L473.3 484.5 L472.5 487.4 L471.1 489.8 L469.1 491.6 L467.0 492.7 L464.8 493.2 L462.7 493.0" stroke="#5c3d5f"/>
<path d="M594.6 496.3 L590.1 505.2 L583.7 512.5 L575.8 517.8 L567.1 520.9 L558.0 521.7 L549.2 520.3 L541.3 516.7 L534.7 511.5 L529.7 504.8 L526.6 497.4 L525.5 489.6 L526.4 482.0 L529.1 475.0 L533.4 469.1 L538.8 464.6 L545.0 461.7 L551.6 460.5 L558.0 461.0 L563.9 463.0 L569.0 466.3 L572.8 470.7 L575.4 475.7 L576.6 481.0 L576.4 486.2 L574.9 491.1 L572.4 495.2 L569.0 498.3 L565.1 500.4 L561.0 501.4 L557.0 501.3 L553.3 500.3 L550.2 498.4 L547.8 495.9 L546.3 493.0 L545.7 490.1 L545.8 487.2 L546.6 484.7 L548.0 482.7 L549.7 481.3 L551.6 480.5" stroke="#5c3d5f"/>
<path d="M655.6 444.3 L666.3 452.3 L673.5 463.3 L676.5 475.8 L675.1 488.3 L669.7 499.4 L661.0 507.7 L650.3 512.5 L638.8 513.3 L628.0 510.2 L619.1 503.8 L613.1 495.0 L610.5 485.0 L611.5 474.9 L615.7 466.1 L622.5 459.4 L631.0 455.5 L639.9 454.7 L648.3 457.0 L655.2 461.9 L659.9 468.6 L661.9 476.2 L661.2 483.8 L658.1 490.4 L653.1 495.4 L646.9 498.2 L640.4 498.8 L634.4 497.1 L629.6 493.6 L626.4 488.9 L625.1 483.7 L625.6 478.6 L627.8 474.2 L631.2 471.1 L635.2 469.4 L639.2 469.3 L642.8 470.5 L645.5 472.7 L647.1 475.5 L647.5 478.4 L646.9 481.1" stroke="#46304c"/>
<path d="M707.0 441.6 L718.3 438.0 L729.8 437.4 L740.9 439.6 L750.9 444.4 L759.1 451.4 L765.2 460.0 L768.9 469.7 L770.0 479.7 L768.6 489.5 L764.8 498.3 L759.1 505.8 L751.9 511.4 L743.8 515.0 L735.2 516.3 L726.9 515.5 L719.2 512.6 L712.7 508.1 L707.7 502.2 L704.5 495.5 L703.1 488.5 L703.5 481.5 L705.6 475.2 L709.1 469.7 L713.7 465.5 L719.1 462.8 L724.7 461.5 L730.2 461.7 L735.2 463.2 L739.5 465.8 L742.8 469.3 L744.9 473.3 L745.9 477.6 L745.8 481.6 L744.6 485.3 L742.7 488.3 L740.2 490.6 L737.4 492.0 L734.5 492.5 L731.8 492.2 L729.6 491.3" stroke="#52385a"/>
<path d="M831.1 439.3 L845.1 445.3 L856.0 455.5 L862.6 468.5 L864.4 482.7 L861.3 496.3 L854.0 507.8 L843.4 515.9 L830.9 519.8 L818.2 519.3 L806.8 514.6 L797.8 506.5 L792.3 496.1 L790.7 484.8 L793.0 473.9 L798.7 464.7 L807.0 458.2 L816.7 455.0 L826.5 455.3 L835.4 458.8 L842.4 465.0 L846.6 472.8 L847.9 481.4 L846.2 489.5 L842.0 496.3 L835.9 501.1 L828.9 503.4 L821.8 503.2 L815.6 500.6 L810.8 496.3 L808.0 490.8 L807.2 485.0 L808.5 479.7 L811.3 475.3 L815.3 472.4 L819.7 471.2 L824.0 471.6 L827.6 473.3 L830.1 476.0 L831.3 479.1 L831.4 482.2" stroke="#6a4468"/>
<path d="M890.1 514.9 L881.8 502.8 L878.2 488.9 L879.5 474.9 L885.3 462.5 L894.9 453.0 L906.8 447.4 L919.6 446.2 L931.7 449.4 L941.8 456.4 L948.7 466.1 L951.9 477.3 L951.0 488.6 L946.5 498.7 L939.0 506.4 L929.6 510.9 L919.5 512.0 L910.0 509.6 L902.1 504.3 L896.7 496.8 L894.2 488.3 L894.8 479.7 L898.2 472.1 L903.7 466.3 L910.6 462.9 L918.0 462.1 L924.9 463.9 L930.6 467.7 L934.3 473.0 L936.0 479.0 L935.5 484.9 L933.1 489.9 L929.4 493.7 L924.8 495.7 L920.1 496.1 L915.9 494.8 L912.6 492.3 L910.5 489.1 L909.9 485.6 L910.4 482.4 L912.0 479.9" stroke="#5c3d5f"/>
<path d="M966.8 486.3 L966.8 472.8 L970.6 460.3 L977.9 449.6 L987.8 441.8 L999.2 437.3 L1011.3 436.4 L1022.7 439.1 L1032.7 444.9 L1040.3 453.1 L1044.9 463.0 L1046.4 473.6 L1044.8 483.9 L1040.3 492.9 L1033.5 500.1 L1025.1 504.7 L1016.0 506.6 L1007.1 505.8 L999.0 502.4 L992.5 496.9 L988.1 490.0 L986.0 482.4 L986.3 474.8 L988.7 467.8 L993.0 462.2 L998.5 458.2 L1004.7 456.1 L1010.9 456.0 L1016.7 457.7 L1021.4 460.9 L1024.8 465.2 L1026.6 470.0 L1026.9 474.9 L1025.7 479.4 L1023.4 483.0 L1020.2 485.6 L1016.7 487.0 L1013.1 487.2 L1010.0 486.4 L1007.5 484.7 L1005.8 482.5" stroke="#2f2236"/>
<path d="M1123.2 445.1 L1132.2 451.0 L1139.3 458.9 L1144.1 468.1 L1146.3 478.0 L1146.1 487.9 L1143.4 497.2 L1138.6 505.4 L1132.0 511.9 L1124.2 516.5 L1115.7 518.9 L1107.1 519.1 L1099.0 517.2 L1091.8 513.4 L1085.9 508.0 L1081.7 501.5 L1079.4 494.4 L1078.9 487.2 L1080.2 480.3 L1083.2 474.1 L1087.4 469.1 L1092.6 465.4 L1098.4 463.3 L1104.3 462.7 L1109.9 463.5 L1115.0 465.8 L1119.1 469.0 L1122.1 473.1 L1123.9 477.6 L1124.5 482.2 L1123.9 486.5 L1122.2 490.3 L1119.8 493.5 L1116.8 495.7 L1113.5 497.0 L1110.2 497.3 L1107.2 496.8 L1104.5 495.6 L1102.5 493.9 L1101.2 491.8 L1100.6 489.6" stroke="#2f2236"/>
<path d="M1205.1 436.8 L1214.3 442.3 L1221.7 449.7 L1226.9 458.6 L1229.7 468.2 L1230.0 478.1 L1227.8 487.4 L1223.4 495.8 L1217.2 502.6 L1209.8 507.5 L1201.5 510.3 L1193.0 510.9 L1184.8 509.5 L1177.5 506.1 L1171.4 501.1 L1166.9 494.9 L1164.2 488.0 L1163.4 480.8 L1164.4 473.9 L1166.9 467.7 L1170.9 462.4 L1175.9 458.5 L1181.5 456.1 L1187.3 455.2 L1192.9 455.8 L1198.0 457.7 L1202.3 460.8 L1205.5 464.6 L1207.5 469.0 L1208.3 473.5 L1207.9 477.8 L1206.4 481.7 L1204.2 484.9 L1201.3 487.3 L1198.1 488.7 L1194.9 489.2 L1191.9 488.9 L1189.2 487.8 L1187.1 486.2 L1185.7 484.2 L1185.0 482.1" stroke="#5c3d5f"/>
<path d="M1328.5 454.9 L1331.7 465.9 L1332.0 477.0 L1329.6 487.7 L1324.8 497.2 L1317.8 505.0 L1309.3 510.7 L1299.9 514.0 L1290.1 514.8 L1280.7 513.2 L1272.3 509.4 L1265.2 503.7 L1260.0 496.6 L1256.8 488.6 L1255.7 480.3 L1256.7 472.3 L1259.6 464.9 L1264.2 458.8 L1269.9 454.1 L1276.5 451.1 L1283.3 450.0 L1290.0 450.6 L1296.1 452.7 L1301.3 456.3 L1305.2 460.8 L1307.8 466.0 L1308.9 471.5 L1308.6 476.8 L1307.0 481.6 L1304.3 485.7 L1300.8 488.8 L1296.9 490.8 L1292.8 491.6 L1288.9 491.4 L1285.4 490.2 L1282.5 488.2 L1280.4 485.7 L1279.1 483.0 L1278.7 480.2 L1279.0 477.6 L1280.0 475.5" stroke="#52385a"/>
<path d="M-12.6 534.2 L-7.2 546.0 L-6.1 558.7 L-9.4 570.7 L-16.3 580.7 L-26.1 587.6 L-37.3 590.7 L-48.7 589.7 L-58.8 585.1 L-66.5 577.6 L-71.1 568.0 L-72.2 557.8 L-69.7 548.0 L-64.3 539.9 L-56.6 534.3 L-47.7 531.7 L-38.8 532.3 L-30.8 535.9 L-24.7 541.7 L-21.1 549.0 L-20.2 556.9 L-22.0 564.3 L-26.1 570.4 L-31.8 574.6 L-38.4 576.5 L-44.9 576.1 L-50.7 573.5 L-55.0 569.4 L-57.5 564.2 L-58.1 558.7 L-56.8 553.6 L-53.9 549.5 L-50.1 546.8 L-45.8 545.7 L-41.6 546.2 L-38.1 547.9 L-35.6 550.6 L-34.4 553.7 L-34.3 556.8 L-35.3 559.5 L-37.0 561.5" stroke="#6a4468"/>
<path d="M45.8 504.8 L62.3 506.7 L76.9 514.0 L87.8 525.5 L94.1 539.8 L95.1 555.0 L91.0 569.3 L82.4 581.1 L70.6 589.1 L57.2 592.5 L43.7 591.1 L31.9 585.4 L22.9 576.3 L17.7 564.9 L16.7 552.8 L19.8 541.4 L26.4 532.0 L35.6 525.7 L46.0 522.9 L56.4 523.8 L65.5 528.1 L72.4 535.0 L76.4 543.6 L77.1 552.6 L74.9 561.1 L70.0 567.9 L63.4 572.5 L55.9 574.4 L48.6 573.7 L42.3 570.7 L37.6 565.8 L35.0 560.0 L34.7 554.0 L36.3 548.6 L39.6 544.4 L43.8 541.7 L48.4 540.8 L52.6 541.5 L56.1 543.5 L58.4 546.3 L59.4 549.5" stroke="#3a2740"/>
<path d="M117.1 522.9 L127.8 520.8 L138.5 521.4 L148.5 524.6 L157.1 530.1 L164.0 537.4 L168.7 546.0 L171.1 555.3 L171.0 564.6 L168.6 573.5 L164.3 581.2 L158.2 587.5 L151.0 591.9 L143.2 594.3 L135.2 594.6 L127.5 592.9 L120.8 589.5 L115.3 584.7 L111.3 578.8 L109.1 572.3 L108.5 565.6 L109.7 559.3 L112.3 553.6 L116.1 549.0 L120.7 545.6 L125.9 543.6 L131.2 543.0 L136.3 543.8 L140.7 545.7 L144.4 548.6 L147.1 552.2 L148.6 556.1 L149.1 560.1 L148.5 563.8 L147.1 567.1 L145.0 569.7 L142.4 571.5 L139.7 572.5 L137.0 572.6 L134.6 572.1 L132.6 571.0" stroke="#6a4468"/>
<path d="M258.0 587.6 L246.4 591.9 L234.2 592.6 L222.7 589.7 L212.7 583.7 L205.2 575.2 L200.6 565.1 L199.2 554.3 L201.1 543.8 L205.8 534.6 L212.9 527.4 L221.5 522.7 L230.9 520.9 L240.2 521.9 L248.6 525.5 L255.2 531.2 L259.8 538.5 L261.9 546.5 L261.6 554.6 L259.0 561.9 L254.4 568.0 L248.5 572.2 L241.8 574.4 L235.0 574.5 L228.7 572.7 L223.5 569.2 L219.8 564.5 L217.7 559.1 L217.3 553.6 L218.6 548.5 L221.2 544.2 L224.8 541.1 L228.9 539.3 L233.1 538.9 L237.1 539.7 L240.3 541.6 L242.6 544.2 L243.9 547.2 L244.2 550.2 L243.6 552.9 L242.2 555.0" stroke="#5c3d5f"/>
<path d="M357.6 552.5 L357.5 565.9 L353.0 578.2 L344.7 588.0 L333.9 594.3 L321.8 596.5 L309.9 594.5 L299.7 588.7 L292.3 580.0 L288.3 569.5 L288.2 558.6 L291.7 548.6 L298.2 540.5 L306.8 535.3 L316.5 533.4 L325.9 534.9 L334.0 539.4 L339.9 546.1 L343.1 554.2 L343.3 562.6 L340.6 570.4 L335.7 576.5 L329.2 580.5 L322.1 581.9 L315.1 580.8 L309.2 577.6 L304.9 572.7 L302.7 566.9 L302.6 560.9 L304.4 555.5 L307.9 551.4 L312.3 548.8 L317.1 548.0 L321.6 548.8 L325.3 551.0 L327.8 554.2 L329.0 557.7 L328.8 561.2 L327.5 564.2 L325.4 566.3 L322.9 567.4" stroke="#2f2236"/>
<path d="M379.9 586.4 L372.7 575.6 L369.1 563.4 L369.3 550.9 L373.1 539.3 L380.0 529.5 L389.2 522.4 L399.9 518.4 L411.0 517.8 L421.5 520.5 L430.6 526.0 L437.4 533.7 L441.6 542.8 L442.8 552.6 L441.1 561.9 L436.8 570.1 L430.5 576.5 L422.8 580.6 L414.5 582.2 L406.4 581.3 L399.1 578.1 L393.4 573.0 L389.5 566.7 L387.8 559.8 L388.2 553.0 L390.5 546.8 L394.4 541.8 L399.4 538.4 L404.9 536.7 L410.5 536.8 L415.4 538.4 L419.5 541.4 L422.3 545.2 L423.7 549.4 L423.8 553.6 L422.7 557.4 L420.5 560.4 L417.8 562.4 L414.8 563.4 L411.9 563.4 L409.4 562.5" stroke="#46304c"/>
<path d="M478.9 597.4 L466.1 586.2 L458.1 571.7 L455.5 555.6 L458.5 540.0 L466.5 526.6 L478.3 517.0 L492.3 512.0 L506.8 512.1 L520.1 517.0 L530.6 526.0 L537.3 537.6 L539.6 550.5 L537.4 563.1 L531.2 573.9 L522.0 581.7 L511.0 585.7 L499.6 585.8 L489.2 582.1 L481.0 575.2 L475.8 566.3 L474.0 556.5 L475.6 547.1 L480.2 539.0 L487.0 533.2 L495.1 530.3 L503.3 530.2 L510.7 532.9 L516.5 537.8 L520.0 544.0 L521.2 550.8 L519.9 557.2 L516.8 562.4 L512.2 566.0 L507.1 567.7 L502.0 567.5 L497.6 565.6 L494.4 562.6 L492.6 558.9 L492.4 555.2 L493.4 551.9" stroke="#2f2236"/>
<path d="M631.1 572.6 L624.4 584.0 L614.3 592.3 L602.3 596.5 L589.9 596.4 L578.5 592.2 L569.4 584.5 L563.6 574.5 L561.6 563.3 L563.5 552.4 L568.8 543.0 L576.9 536.2 L586.5 532.6 L596.5 532.5 L605.6 535.7 L612.9 541.7 L617.6 549.6 L619.2 558.3 L617.9 566.8 L613.8 574.1 L607.7 579.4 L600.4 582.2 L592.9 582.3 L586.0 579.9 L580.6 575.5 L577.2 569.7 L576.0 563.4 L577.0 557.3 L579.9 552.2 L584.2 548.6 L589.3 546.7 L594.3 546.8 L598.8 548.4 L602.3 551.4 L604.3 555.2 L604.9 559.1 L604.1 562.8 L602.2 565.6 L599.6 567.5 L596.7 568.3 L594.1 567.9" stroke="#52385a"/>
<path d="M728.3 527.1 L735.6 540.3 L738.0 554.8 L735.3 569.1 L728.2 581.3 L717.5 590.1 L704.8 594.7 L691.5 594.7 L679.4 590.2 L669.7 582.2 L663.5 571.5 L661.4 559.7 L663.4 548.2 L669.0 538.3 L677.4 531.2 L687.4 527.4 L697.9 527.3 L707.4 530.6 L715.0 536.8 L719.8 545.0 L721.6 554.0 L720.1 562.8 L715.9 570.3 L709.7 575.6 L702.3 578.4 L694.6 578.5 L687.7 576.1 L682.3 571.6 L678.9 565.8 L677.8 559.5 L678.9 553.5 L681.8 548.6 L686.0 545.1 L690.9 543.4 L695.8 543.5 L700.0 545.2 L703.1 548.1 L704.9 551.6 L705.2 555.2 L704.3 558.5 L702.5 560.9" stroke="#3a2740"/>
<path d="M793.3 511.4 L807.6 519.8 L818.0 532.2 L823.5 547.2 L823.5 562.8 L818.3 577.1 L808.8 588.6 L796.2 595.9 L782.3 598.5 L768.6 596.3 L756.8 589.7 L748.2 579.7 L743.6 567.7 L743.4 555.2 L747.4 543.7 L754.8 534.5 L764.6 528.6 L775.5 526.4 L786.2 528.1 L795.3 533.1 L802.0 540.7 L805.5 549.8 L805.7 559.2 L802.8 567.8 L797.3 574.6 L790.2 578.9 L782.3 580.5 L774.6 579.3 L768.2 575.7 L763.6 570.3 L761.3 564.0 L761.3 557.7 L763.3 552.0 L767.0 547.7 L771.7 545.1 L776.6 544.4 L781.2 545.4 L784.8 547.7 L787.2 550.9 L788.2 554.5 L787.8 557.8" stroke="#52385a"/>
<path d="M876.0 516.8 L887.1 520.3 L896.4 526.8 L903.3 535.5 L907.1 545.7 L907.8 556.3 L905.4 566.5 L900.2 575.2 L892.8 581.8 L884.0 585.9 L874.6 587.1 L865.5 585.6 L857.5 581.5 L851.3 575.5 L847.2 568.0 L845.6 559.9 L846.4 551.9 L849.4 544.8 L854.3 539.0 L860.5 535.1 L867.3 533.3 L874.2 533.6 L880.4 535.8 L885.4 539.7 L889.0 544.6 L890.8 550.2 L890.9 555.9 L889.3 561.0 L886.4 565.3 L882.5 568.3 L878.1 570.0 L873.7 570.2 L869.6 569.2 L866.3 567.0 L863.9 564.1 L862.6 560.9 L862.3 557.6 L863.1 554.7 L864.6 552.3 L866.7 550.7 L868.9 549.9" stroke="#2f2236"/>
<path d="M983.9 513.5 L995.6 522.5 L1004.0 534.3 L1008.4 547.8 L1008.6 561.6 L1004.8 574.6 L997.5 585.7 L987.5 593.9 L975.8 598.6 L963.6 599.7 L951.8 597.2 L941.6 591.4 L933.8 583.1 L928.9 573.1 L927.2 562.4 L928.8 552.0 L933.2 542.8 L940.0 535.6 L948.3 530.8 L957.4 528.8 L966.4 529.6 L974.4 532.9 L980.9 538.2 L985.3 545.0 L987.4 552.5 L987.1 560.0 L984.8 566.7 L980.7 572.3 L975.4 576.1 L969.4 578.1 L963.4 578.2 L958.0 576.5 L953.6 573.5 L950.5 569.5 L948.9 565.0 L948.7 560.5 L949.9 556.5 L952.1 553.3 L954.9 551.1 L958.0 550.1 L961.0 550.1" stroke="#52385a"/>
<path d="M1094.4 533.2 L1101.3 548.4 L1102.6 564.7 L1098.4 580.1 L1089.3 592.8 L1076.8 601.6 L1062.4 605.5 L1047.8 604.2 L1034.9 598.3 L1025.0 588.5 L1019.1 576.2 L1017.9 563.0 L1021.1 550.6 L1028.1 540.2 L1038.0 533.1 L1049.4 529.8 L1060.9 530.7 L1071.1 535.2 L1078.9 542.8 L1083.5 552.2 L1084.6 562.3 L1082.2 571.8 L1076.9 579.6 L1069.5 584.9 L1061.1 587.4 L1052.7 586.8 L1045.3 583.4 L1039.8 578.0 L1036.6 571.4 L1035.9 564.3 L1037.7 557.8 L1041.3 552.6 L1046.3 549.2 L1051.8 547.8 L1057.1 548.4 L1061.6 550.6 L1064.8 554.1 L1066.4 558.1 L1066.5 562.1 L1065.2 565.6 L1063.0 568.1" stroke="#6a4468"/>
<path d="M1116.2 524.0 L1127.7 517.0 L1140.5 514.3 L1153.3 516.2 L1164.4 522.1 L1172.6 531.2 L1177.2 542.4 L1177.7 554.1 L1174.2 565.1 L1167.4 573.9 L1158.2 579.8 L1147.8 582.2 L1137.5 580.9 L1128.5 576.3 L1121.8 569.1 L1118.1 560.3 L1117.6 551.0 L1120.2 542.4 L1125.4 535.5 L1132.5 530.8 L1140.4 529.0 L1148.3 529.9 L1155.1 533.3 L1160.1 538.7 L1162.9 545.2 L1163.2 552.0 L1161.3 558.2 L1157.5 563.2 L1152.5 566.4 L1147.0 567.6 L1141.6 566.9 L1137.1 564.5 L1133.8 560.9 L1132.2 556.6 L1132.1 552.3 L1133.4 548.5 L1135.9 545.6 L1138.9 543.9 L1142.1 543.4 L1145.0 544.1 L1147.3 545.6" stroke="#2f2236"/>
<path d="M1212.3 536.9 L1220.0 530.9 L1228.8 527.2 L1238.1 525.8 L1247.2 526.7 L1255.5 529.8 L1262.7 534.8 L1268.3 541.3 L1272.0 548.7 L1273.6 556.7 L1273.2 564.7 L1270.9 572.0 L1266.8 578.4 L1261.5 583.5 L1255.3 586.9 L1248.5 588.6 L1241.8 588.6 L1235.5 586.9 L1230.0 583.7 L1225.6 579.5 L1222.5 574.4 L1220.9 568.9 L1220.7 563.3 L1221.9 558.1 L1224.3 553.6 L1227.6 549.9 L1231.6 547.3 L1235.9 545.9 L1240.3 545.7 L1244.4 546.5 L1247.9 548.3 L1250.7 550.8 L1252.6 553.8 L1253.7 557.0 L1253.8 560.2 L1253.2 563.1 L1251.9 565.6 L1250.1 567.4 L1248.0 568.7 L1245.8 569.2 L1243.8 569.1" stroke="#3a2740"/>
<path d="M-47.4 621.0 L-43.8 611.1 L-38.0 602.7 L-30.4 596.1 L-21.6 591.7 L-12.2 589.8 L-2.8 590.2 L6.0 592.9 L13.6 597.6 L19.7 603.9 L23.9 611.4 L26.0 619.4 L26.0 627.6 L24.0 635.2 L20.3 641.9 L15.2 647.3 L9.0 651.1 L2.3 653.2 L-4.5 653.5 L-11.0 652.1 L-16.7 649.3 L-21.3 645.2 L-24.7 640.2 L-26.6 634.8 L-27.0 629.3 L-26.0 624.1 L-23.9 619.4 L-20.7 615.7 L-16.9 613.0 L-12.7 611.4 L-8.5 611.0 L-4.5 611.7 L-1.0 613.3 L1.8 615.6 L3.7 618.4 L4.8 621.4 L5.0 624.4 L4.4 627.2 L3.2 629.5 L1.6 631.2 L-0.3 632.3" stroke="#5c3d5f"/>
<path d="M58.6 667.7 L51.9 658.6 L47.8 648.4 L46.5 637.7 L47.8 627.2 L51.6 617.6 L57.5 609.5 L65.2 603.2 L73.9 599.2 L83.2 597.5 L92.3 598.2 L100.8 601.1 L108.0 605.9 L113.7 612.2 L117.5 619.5 L119.3 627.3 L119.0 635.1 L116.9 642.4 L113.1 648.6 L108.1 653.6 L102.1 657.0 L95.7 658.7 L89.3 658.8 L83.3 657.2 L78.1 654.3 L74.0 650.4 L71.2 645.7 L69.7 640.7 L69.5 635.6 L70.6 631.0 L72.8 627.0 L75.7 623.8 L79.2 621.6 L83.0 620.5 L86.6 620.4 L90.0 621.3 L92.8 622.9 L94.9 625.0 L96.2 627.4 L96.8 629.9 L96.6 632.2" stroke="#2f2236"/>
<path d="M208.3 665.8 L193.2 672.2 L177.2 673.1 L162.2 668.5 L149.9 659.4 L141.6 646.9 L138.2 632.6 L139.8 618.4 L145.9 605.8 L155.8 596.3 L167.9 590.9 L180.9 590.0 L193.1 593.4 L203.1 600.6 L209.8 610.5 L212.7 621.8 L211.6 633.0 L206.9 642.9 L199.3 650.4 L190.0 654.6 L180.0 655.4 L170.8 652.9 L163.2 647.5 L158.1 640.1 L156.0 631.8 L156.8 623.6 L160.2 616.4 L165.7 611.1 L172.3 608.2 L179.2 607.7 L185.5 609.5 L190.6 613.3 L193.8 618.2 L195.0 623.7 L194.3 628.9 L192.0 633.2 L188.6 636.3 L184.6 637.7 L180.6 637.7 L177.3 636.4 L174.9 634.1" stroke="#3a2740"/>
<path d="M233.1 655.4 L227.8 642.9 L226.5 629.6 L229.1 616.8 L235.2 605.6 L244.2 596.9 L255.1 591.3 L266.9 589.3 L278.4 590.9 L288.8 595.6 L297.0 603.0 L302.6 612.3 L305.0 622.5 L304.4 632.8 L300.8 642.1 L294.9 649.7 L287.1 655.1 L278.4 657.8 L269.5 657.8 L261.3 655.3 L254.5 650.6 L249.6 644.3 L246.8 637.0 L246.4 629.6 L248.1 622.6 L251.7 616.7 L256.7 612.4 L262.5 609.8 L268.5 609.2 L274.2 610.3 L279.0 612.9 L282.6 616.7 L284.8 621.2 L285.4 625.8 L284.7 630.2 L282.8 633.8 L280.0 636.5 L276.8 638.1 L273.5 638.5 L270.5 638.0 L268.1 636.6" stroke="#52385a"/>
<path d="M333.6 600.7 L343.9 590.9 L356.4 584.7 L369.9 582.5 L383.1 584.4 L394.9 590.0 L404.3 598.6 L410.6 609.3 L413.4 621.2 L412.6 633.0 L408.4 643.8 L401.3 652.7 L392.2 658.9 L382.0 662.0 L371.6 662.0 L361.9 658.9 L353.8 653.3 L348.0 645.8 L344.7 637.1 L344.2 628.2 L346.2 619.8 L350.6 612.6 L356.7 607.3 L363.8 604.1 L371.2 603.2 L378.3 604.6 L384.4 607.9 L389.0 612.6 L391.9 618.2 L392.9 624.2 L392.0 629.9 L389.7 634.8 L386.1 638.6 L381.8 640.9 L377.3 641.8 L373.0 641.2 L369.4 639.5 L366.6 637.0 L365.0 633.9 L364.5 630.8 L364.9 627.9" stroke="#5c3d5f"/>
<path d="M483.3 678.7 L472.2 682.5 L460.7 683.3 L449.7 681.3 L439.7 676.7 L431.4 669.9 L425.2 661.4 L421.4 651.9 L420.1 641.9 L421.4 632.2 L425.0 623.3 L430.5 615.9 L437.6 610.2 L445.6 606.5 L454.1 605.0 L462.4 605.7 L470.0 608.4 L476.6 612.8 L481.6 618.6 L484.9 625.2 L486.4 632.1 L486.1 639.1 L484.1 645.4 L480.7 650.9 L476.2 655.1 L471.0 658.0 L465.5 659.3 L460.0 659.2 L454.9 657.8 L450.7 655.2 L447.3 651.8 L445.1 647.9 L444.1 643.7 L444.2 639.6 L445.2 636.0 L447.1 632.9 L449.6 630.6 L452.4 629.2 L455.2 628.7 L457.8 628.9 L460.1 629.8" stroke="#3a2740"/>
<path d="M569.6 669.3 L559.7 673.1 L549.3 674.2 L539.2 672.8 L530.0 668.9 L522.2 663.0 L516.3 655.5 L512.6 647.0 L511.1 638.0 L511.9 629.2 L514.9 621.0 L519.6 614.0 L525.8 608.6 L533.0 605.0 L540.7 603.4 L548.2 603.8 L555.3 606.0 L561.3 609.7 L566.1 614.8 L569.3 620.6 L570.9 626.9 L570.9 633.2 L569.3 639.1 L566.4 644.1 L562.4 648.1 L557.8 650.9 L552.8 652.3 L547.8 652.4 L543.2 651.2 L539.2 649.1 L536.1 646.1 L534.0 642.6 L532.9 638.8 L532.8 635.1 L533.7 631.8 L535.3 629.0 L537.4 626.8 L539.9 625.4 L542.5 624.8 L544.9 624.9 L547.0 625.7" stroke="#3a2740"/>
<path d="M595.6 659.5 L591.5 647.8 L590.4 635.7 L592.4 624.0 L597.1 613.3 L604.2 604.4 L613.1 597.8 L623.2 593.6 L633.7 592.2 L644.0 593.4 L653.4 597.0 L661.4 602.8 L667.5 610.2 L671.5 618.6 L673.2 627.6 L672.5 636.4 L669.8 644.5 L665.2 651.5 L659.2 656.9 L652.3 660.5 L644.9 662.2 L637.6 661.9 L630.9 659.9 L625.0 656.4 L620.5 651.7 L617.4 646.2 L615.9 640.3 L615.9 634.6 L617.4 629.2 L620.0 624.6 L623.6 621.1 L627.8 618.7 L632.1 617.5 L636.4 617.5 L640.3 618.6 L643.6 620.6 L646.0 623.2 L647.6 626.1 L648.2 629.1 L648.0 631.9 L647.1 634.3" stroke="#5c3d5f"/>
<path d="M758.2 673.9 L743.1 677.6 L727.8 676.0 L714.3 669.5 L704.1 658.9 L698.2 645.9 L697.1 631.9 L700.7 618.7 L708.5 607.8 L719.2 600.3 L731.5 597.0 L743.9 598.1 L754.8 603.2 L763.2 611.5 L768.0 621.9 L769.1 633.0 L766.3 643.4 L760.4 652.0 L752.1 657.9 L742.6 660.5 L733.1 659.8 L724.8 656.0 L718.5 649.7 L714.8 642.0 L714.0 633.8 L716.0 626.2 L720.3 620.0 L726.3 615.8 L733.0 614.0 L739.6 614.6 L745.3 617.3 L749.5 621.6 L751.8 626.7 L752.1 632.1 L750.7 636.9 L747.8 640.6 L744.1 643.0 L740.1 643.8 L736.4 643.1 L733.4 641.4 L731.5 638.9" stroke="#52385a"/>
<path d="M833.0 585.0 L848.6 592.3 L860.6 604.2 L867.6 619.1 L869.1 635.2 L865.2 650.5 L856.4 663.3 L844.2 672.1 L830.0 676.1 L815.7 675.1 L802.8 669.4 L793.0 659.9 L787.1 647.9 L785.7 635.0 L788.7 622.8 L795.5 612.6 L805.0 605.5 L816.1 602.2 L827.3 602.9 L837.2 607.2 L844.8 614.4 L849.4 623.5 L850.5 633.2 L848.3 642.3 L843.3 649.9 L836.3 655.1 L828.3 657.4 L820.3 656.9 L813.3 653.8 L808.0 648.7 L805.0 642.5 L804.4 635.9 L806.0 629.9 L809.4 625.1 L814.0 621.9 L819.0 620.7 L823.8 621.3 L827.8 623.4 L830.5 626.5 L831.9 630.0 L831.8 633.5" stroke="#6a4468"/>
<path d="M958.2 652.4 L949.8 661.9 L939.2 668.4 L927.3 671.4 L915.4 670.8 L904.4 666.7 L895.3 659.8 L888.9 650.7 L885.5 640.3 L885.3 629.7 L888.2 619.7 L893.8 611.3 L901.4 605.1 L910.3 601.5 L919.6 600.7 L928.4 602.7 L936.1 607.0 L941.9 613.3 L945.5 620.7 L946.7 628.6 L945.5 636.3 L942.2 643.0 L937.2 648.3 L931.1 651.7 L924.5 653.0 L918.1 652.4 L912.4 649.9 L907.9 646.1 L904.9 641.3 L903.6 636.0 L903.9 630.9 L905.6 626.3 L908.5 622.7 L912.1 620.3 L916.1 619.1 L919.9 619.3 L923.3 620.5 L925.9 622.6 L927.6 625.2 L928.4 627.9 L928.2 630.5" stroke="#6a4468"/>
<path d="M987.4 599.2 L996.1 594.9 L1005.3 593.0 L1014.6 593.4 L1023.2 596.1 L1030.8 600.7 L1036.8 607.0 L1040.9 614.3 L1043.0 622.3 L1043.1 630.4 L1041.1 638.0 L1037.4 644.8 L1032.3 650.2 L1026.1 654.0 L1019.4 656.2 L1012.5 656.5 L1006.0 655.2 L1000.1 652.3 L995.4 648.2 L992.0 643.1 L990.0 637.6 L989.5 631.9 L990.4 626.5 L992.5 621.7 L995.8 617.7 L999.7 614.8 L1004.1 613.1 L1008.6 612.6 L1012.8 613.2 L1016.6 614.8 L1019.7 617.3 L1022.0 620.2 L1023.3 623.5 L1023.7 626.8 L1023.2 629.9 L1022.0 632.6 L1020.2 634.8 L1018.1 636.2 L1015.9 637.0 L1013.7 637.1 L1011.7 636.6" stroke="#3a2740"/>
<path d="M1090.8 590.7 L1104.6 590.4 L1117.5 594.1 L1128.6 601.2 L1136.8 611.1 L1141.7 622.7 L1142.9 635.0 L1140.4 646.8 L1134.7 657.1 L1126.5 665.0 L1116.4 670.1 L1105.7 671.8 L1095.2 670.4 L1085.8 666.0 L1078.3 659.2 L1073.4 650.8 L1071.2 641.6 L1071.9 632.4 L1075.2 624.1 L1080.6 617.3 L1087.5 612.6 L1095.2 610.3 L1103.0 610.4 L1110.2 612.7 L1116.1 616.9 L1120.3 622.5 L1122.6 628.8 L1122.8 635.1 L1121.2 641.0 L1118.0 646.0 L1113.8 649.5 L1108.9 651.5 L1103.9 651.9 L1099.3 650.8 L1095.5 648.5 L1092.8 645.3 L1091.3 641.7 L1091.0 638.1 L1091.8 634.9 L1093.4 632.3 L1095.6 630.6" stroke="#52385a"/>
<path d="M1243.3 626.8 L1242.5 642.6 L1236.5 656.9 L1226.2 668.1 L1213.0 674.9 L1198.6 676.8 L1184.7 673.7 L1173.0 666.3 L1164.7 655.6 L1160.6 643.0 L1161.0 630.2 L1165.7 618.5 L1173.9 609.4 L1184.4 603.7 L1195.8 602.0 L1206.9 604.3 L1216.2 610.0 L1222.8 618.3 L1226.1 628.1 L1225.8 638.0 L1222.3 647.0 L1216.2 654.0 L1208.3 658.3 L1199.7 659.6 L1191.6 657.9 L1184.7 653.7 L1180.0 647.7 L1177.7 640.7 L1177.9 633.7 L1180.4 627.5 L1184.7 622.8 L1190.1 620.0 L1195.8 619.2 L1201.0 620.5 L1205.3 623.3 L1208.1 627.2 L1209.2 631.5 L1208.8 635.6 L1207.1 639.0 L1204.6 641.3 L1201.6 642.5" stroke="#52385a"/>
<path d="M1329.8 642.4 L1325.4 655.4 L1317.0 665.9 L1305.7 672.8 L1293.1 675.3 L1280.7 673.5 L1269.8 667.7 L1261.8 658.8 L1257.4 647.9 L1256.9 636.4 L1260.3 625.8 L1267.0 617.2 L1276.0 611.5 L1286.0 609.2 L1296.0 610.5 L1304.7 615.0 L1311.1 622.0 L1314.7 630.5 L1315.1 639.4 L1312.5 647.6 L1307.5 654.3 L1300.7 658.7 L1293.1 660.4 L1285.7 659.4 L1279.3 656.1 L1274.6 651.0 L1272.0 644.9 L1271.7 638.5 L1273.6 632.7 L1277.1 628.1 L1281.8 625.2 L1287.0 624.1 L1291.9 624.9 L1296.0 627.1 L1298.9 630.5 L1300.3 634.4 L1300.2 638.2 L1298.9 641.6 L1296.7 644.0 L1294.0 645.4 L1291.3 645.6" stroke="#52385a"/>
</g>
<text x="600.0" y="300.0" text-anchor="middle" dominant-baseline="central" font-family="Inter, Vazirmatn, system-ui, sans-serif" font-size="300" font-weight="800" letter-spacing="-2" fill="#ffffff" stroke="#241a2a" stroke-width="18.0" paint-order="stroke">frfro</text>
</svg>